<?xml version="1.0" encoding="UTF-8"?>
<svg id="Camada_2" data-name="Camada 2" xmlns="http://www.w3.org/2000/svg" xmlns:xlink="http://www.w3.org/1999/xlink" viewBox="0 0 3993.13 2038.52">
  <defs>
    <style>
      .cls-1 {
        clip-path: url(#clippath-6);
      }

      .cls-2 {
        clip-path: url(#clippath-7);
      }

      .cls-3 {
        clip-path: url(#clippath-4);
      }

      .cls-4 {
        clip-path: url(#clippath-9);
      }

      .cls-5 {
        clip-path: url(#clippath-10);
      }

      .cls-6 {
        clip-path: url(#clippath-11);
      }

      .cls-7 {
        fill: #bdc6ba;
      }

      .cls-7, .cls-8, .cls-9 {
        stroke: #000;
        stroke-miterlimit: 10;
      }

      .cls-7, .cls-9 {
        stroke-width: 4px;
      }

      .cls-10, .cls-8, .cls-9 {
        fill: none;
      }

      .cls-11 {
        clip-path: url(#clippath-1);
      }

      .cls-12 {
        clip-path: url(#clippath-5);
      }

      .cls-13 {
        clip-path: url(#clippath-8);
      }

      .cls-8 {
        stroke-width: 6px;
      }

      .cls-14 {
        clip-path: url(#clippath-3);
      }

      .cls-15 {
        clip-path: url(#clippath-12);
      }

      .cls-16 {
        clip-path: url(#clippath-2);
      }

      .cls-17 {
        fill: #ab725a;
      }

      .cls-18 {
        clip-path: url(#clippath-13);
      }

      .cls-19 {
        clip-path: url(#clippath);
      }

      .cls-20 {
        opacity: .5;
      }
    </style>
    <clipPath id="clippath">
      <polygon class="cls-10" points="370.94 470.06 373.06 651.47 1181.29 684.64 1182 486.29 673.06 477.12 675.18 657.12 637.06 657.12 636.35 477.12 370.94 470.06"/>
    </clipPath>
    <clipPath id="clippath-1">
      <polygon class="cls-10" points="371.65 685.35 370.23 856.88 690 883.7 691.41 702.29 718.23 703 720.35 883.7 947.65 897.12 948.35 710.06 992.12 711.47 990 903.47 1182 914.76 1182.71 716.41 371.65 685.35"/>
    </clipPath>
    <clipPath id="clippath-2">
      <polygon class="cls-10" points="370.23 891.47 370.23 1070.06 867.88 1115.94 870 929.59 916.59 932.41 917.29 1122.29 1183.41 1146.29 1184.12 944.41 370.23 891.47"/>
    </clipPath>
    <clipPath id="clippath-3">
      <polygon class="cls-10" points="372.35 1099 370.94 1277.59 625.06 1307.94 624.35 1127.94 681.53 1133.59 682.23 1316.41 1182 1375 1182 1175.94 372.35 1099"/>
    </clipPath>
    <clipPath id="clippath-4">
      <polygon class="cls-10" points="1810.94 487 1813.06 616.17 2399.65 595 2400.71 481.7 1810.94 487"/>
    </clipPath>
    <clipPath id="clippath-5">
      <polygon class="cls-10" points="1812 726.29 1809.88 850.17 2397.53 821.59 2398.59 705.12 1812 726.29"/>
    </clipPath>
    <clipPath id="clippath-6">
      <polygon class="cls-10" points="1807.76 963.47 1809.88 1085.23 2397.53 1042.88 2397.53 922.17 1807.76 963.47"/>
    </clipPath>
    <clipPath id="clippath-7">
      <polygon class="cls-10" points="1812 1196.41 1812 1316.06 2399.65 1263.12 2396.47 1146.64 1812 1196.41"/>
    </clipPath>
    <clipPath id="clippath-8">
      <polygon class="cls-10" points="1842.71 1427.23 1843.76 1580.76 2372.12 1518.29 2374.23 1371.12 1842.71 1427.23"/>
    </clipPath>
    <clipPath id="clippath-9">
      <polygon class="cls-10" points="3111.18 469 3111.18 583.35 3586.59 571.7 3583.41 463.7 3111.18 469"/>
    </clipPath>
    <clipPath id="clippath-10">
      <polygon class="cls-10" points="3111.18 680.76 3112.23 789.82 3583.41 766.53 3583.41 667 3111.18 680.76"/>
    </clipPath>
    <clipPath id="clippath-11">
      <polygon class="cls-10" points="3112.23 888.29 3110.12 1000.53 3583.41 964.53 3582.35 860.76 3112.23 888.29"/>
    </clipPath>
    <clipPath id="clippath-12">
      <polygon class="cls-10" points="3111.18 1095.82 3112.23 1209.12 3584.47 1163.59 3585.53 1061.94 3111.18 1095.82"/>
    </clipPath>
    <clipPath id="clippath-13">
      <path class="cls-10" d="M1039.45,1513.72l635.84,92.19,1093.9-134.52-139.19-18.07.21-43.38,396.61,46.14,857.95-104.82s-.56,370.79-.56,369.69-16.26-.81-16.26-.81l.61-253.69-392.41,46.21v89.92l-83.14-8.01v180.94l-49.56,6.47-.23-251.35-314.62,37.93-1.76,52.4-249.77-26.81.51,243.03h-20.09v-247.01l-503.43,59.43v108.05l-105.69-10.44-.98,183.36-63.71,7-.51-262.38-406.1,50.16v261.1l-637.88-131.86.28-340.87Z"/>
    </clipPath>
  </defs>
  <g id="Select">
    <polygon class="cls-17" points="3361.96 1048.76 3361.96 870.29 3753.28 850.97 3750.21 954.46 3814.9 950.38 3814.64 1012.76 3361.96 1048.76"/>
    <polygon class="cls-17" points="3360.43 844.25 3360.43 668.85 3754.9 657.36 3750.81 660.93 3750.55 761.1 3814.55 756.67 3813.87 816.25 3360.43 844.25"/>
  </g>
  <g id="Ajustes">
    <polyline class="cls-9" points="2777.55 1757.65 2867.99 1768.88 2867.69 1906.67 2867.69 1912.37 2728.32 1931.63"/>
    <line class="cls-7" x1="3884.21" y1="1720.96" x2="3990.13" y2="1757.65"/>
  </g>
  <g id="posterior">
    <path d="M1561.25,496.96c-.73,0-1.46,0-2.2,0-7.29-.02-14.68-.16-21.97-.4-5.84-.19-11.77-.46-17.62-.8L21.94,473.09v-40.57l1496.82,17.94c14.33-.02,28.74-.03,43.12-.02,14.16,0,28.32,0,42.48.02l2233.7-20.28v37.75l-2234.93,27.82c-13.87.8-27.95,1.21-41.87,1.21ZM31.94,463.25l1487.89,22.52h.11c5.8.34,11.69.61,17.48.8,7.19.24,14.48.37,21.67.39,14.45.05,29.13-.36,43.57-1.19h.23s1115.06-13.89,1115.06-13.89l1110.12-13.82v-17.78l-2223.66,20.19c-14.64-.02-29.24-.04-43.81-.02-13.96,0-27.92,0-41.88.02L31.94,442.64v20.6Z"/>
    <path d="M1563.9,738.94c-.21,0-.41,0-.62,0-14.2-.02-28.56-.74-42.69-2.13L20.88,673.79v-41.41l1499.9,59.15c14.12.72,28.41,1.09,42.5,1.06,13.51-.01,27.2-.37,40.69-1.05l2235.02-70.4v38.93l-2235.52,77.1c-13.11,1.18-26.42,1.77-39.58,1.77ZM30.88,664.2l1490.41,62.63h.14c13.86,1.38,27.95,2.09,41.87,2.11,13.14.03,26.37-.57,39.42-1.74l.28-.02,2226-76.78v-18.95l-2224.61,70.07c-13.56.69-27.42,1.05-41.09,1.06-14.3.02-28.73-.34-42.97-1.07L30.88,642.78v21.42Z"/>
    <path d="M1562.98,979.29c-14.42,0-28.94-.84-43.2-2.5l-338.83-23.46-312-21.61-497.17-34.43-349.83-24.22v-40.01l1499.33,99.52c15.1,1,30.39,1.35,45.45,1.05,12.54-.24,25.24-.94,37.77-2.09h.18s1025.29-56.75,1025.29-56.75l59.06-3.26c40.5-1.35,81.57-2.9,122.07-4.59,42.71-1.79,86.04-3.81,128.78-6l899.14-49v39.31l-898.96,50.37c-42.94,1.77-85.92,3.67-127.8,5.65-21.44,1.01-43.16,2.08-64.57,3.18l-117.14,6.83c-11.92.69-23.84,1.38-35.76,2.08l-783.53,45.65c-69.45,4.04-138.9,8.08-208.35,12.13-12.36,1.33-24.96,2.05-37.44,2.14-.82,0-1.65,0-2.47,0ZM31.94,863.74l1488.87,103.11c14.71,1.71,29.7,2.52,44.57,2.44,12.19-.08,24.49-.79,36.55-2.09l.25-.02c69.49-4.05,138.98-8.1,208.47-12.14l783.53-45.65c11.92-.7,23.84-1.39,35.76-2.08l117.18-6.83c21.46-1.1,43.19-2.17,64.64-3.18,41.91-1.99,84.9-3.89,127.79-5.65l171.34-9.61,472.47-26.47,245.63-13.77v-19.29l-888.61,48.42c-42.79,2.19-86.15,4.21-128.89,6-40.5,1.69-81.58,3.24-122.09,4.59l-58.9,3.26-1025.2,56.73c-12.74,1.16-25.65,1.88-38.39,2.12-15.34.31-30.92-.05-46.31-1.07l-339.65-22.55-462.59-30.7-346.58-23.01-339.85-22.56v19.99Z"/>
    <path d="M1560.33,1218.25c-12.86,0-25.81-.37-38.61-1.09l-.2-.02L21.94,1071.29v-40.74l5.47.52,1495.73,141.17c13.65.99,27.5,1.47,41.19,1.39,13.48-.07,27.13-.65,40.56-1.75l1082.84-84.35c50.19-4.17,101.18-7.74,151.52-10.6,55.12-3.13,111.06-5.51,166.25-7.06l833.51-66.07v39.67l-831.73,66.74c-65.22,1.2-131.28,4.04-196.34,8.46-21.55,1.46-43.38,3.12-64.86,4.94l-1141.42,93.18c-12.82.84-25.74,1.32-38.48,1.43-1.94.02-3.89.03-5.83.03ZM1522.38,1207.18c14.49.82,29.19,1.17,43.69,1.05,12.55-.11,25.28-.58,37.83-1.4l1141.33-93.17c21.52-1.81,43.4-3.48,65.01-4.95,65.17-4.42,131.34-7.28,196.68-8.48l822.07-65.97v-19.62l-822.97,65.23h-.13c-55.14,1.55-111.02,3.93-166.09,7.06-50.25,2.86-101.15,6.42-151.28,10.58l-1082.85,84.35c-13.67,1.11-27.57,1.71-41.31,1.78-13.95.06-28.11-.41-42.04-1.42h-.11S31.94,1041.55,31.94,1041.55v20.67l1490.44,144.96Z"/>
    <path d="M1565.1,1458.27c-14.18,0-28.43-1.21-42.42-3.62L21.94,1268.47v-38.29l5.6.67,1495.19,179.67.13.02c12.77,2.23,25.82,3.51,38.79,3.81,13.95.32,28.06-.5,41.9-2.42l.18-.02,1082.12-110.82c57.24-4.85,115.21-9.36,172.39-13.42,48.46-3.44,97.61-6.65,146.07-9.53l834.69-84.9v39.7l-4.49.46-829.46,85.08h-.17c-42.59,1.44-85.76,3.57-128.31,6.35-33.12,2.16-66.69,4.77-99.76,7.75l-1171.55,122.45c-11.83,1.93-23.9,3.01-35.87,3.22-1.43.02-2.85.04-4.28.04ZM31.94,1259.63l1492.2,185.12.12.02c14.82,2.55,29.95,3.72,44.95,3.46,11.54-.2,23.17-1.25,34.57-3.11l.29-.04,1171.76-122.47c33.23-3,66.87-5.61,100.08-7.78,42.59-2.78,85.82-4.92,128.46-6.35l824.63-84.58v-19.6l-823.89,83.8h-.1c-48.46,2.89-97.6,6.09-146.06,9.53-57.14,4.06-115.07,8.57-172.17,13.41l-1081.94,110.81c-14.34,2-28.96,2.83-43.42,2.5-13.42-.31-26.92-1.63-40.15-3.93L31.94,1241.45v18.18Z"/>
    <rect x="1563.06" y="335.82" width="4" height="119.65" transform="translate(-2.31 9.24) rotate(-.34)"/>
    <polygon points="78 438.52 74 438.52 74 337 84.82 336.98 1564.7 333.82 2790.83 336.99 3061.17 336.29 3789.53 338.06 3789.53 435.7 3785.53 435.7 3785.53 342.05 3061.17 340.29 2790.83 340.99 1564.7 337.82 78 340.99 78 438.52"/>
    <rect x="1562.7" y="259.23" width="4" height="76.59"/>
    <polygon points="3780.7 340.05 3776.7 340.05 3776.7 280.97 3057.98 273.94 1564.69 261.23 86.82 276.03 86.82 338.98 82.82 338.98 82.82 272.07 84.8 272.05 1564.68 257.23 3058.02 269.94 3780.7 277.01 3780.7 340.05"/>
    <polygon points="53.65 638.64 49.65 638.64 49.65 571.29 372.18 580.88 372.06 584.88 53.65 575.41 53.65 638.64"/>
    <rect x="370.12" y="683.55" width="4" height="177.77"/>
    <rect x="370.12" y="1100.33" width="4" height="177.14"/>
    <rect x="370.12" y="892.31" width="4" height="176.32"/>
    <rect x="370.12" y="473.11" width="4" height="178.13"/>
    <rect x="102.94" y="1074.35" width="4" height="100.18"/>
    <rect x="102.94" y="672.32" width="4" height="103.55"/>
    <rect x="102.94" y="469.23" width="4" height="105.7"/>
    <rect x="102.94" y="873.81" width="4" height="101.25"/>
    <polygon points="53.65 839.82 49.65 839.82 49.65 770.64 372.58 789.47 372.35 793.46 53.65 774.88 53.65 839.82"/>
    <polygon points="53.65 1038.88 49.65 1038.88 49.65 968.22 371.58 996.3 371.24 1000.28 53.65 972.59 53.65 1038.88"/>
    <rect x="652.56" y="1207.76" width="1" height="57.53" transform="translate(-648.02 1749.04) rotate(-83.66)"/>
    <polygon points="53.65 1238.99 49.65 1238.99 49.65 1166.17 373.04 1202.42 372.6 1206.39 53.65 1170.64 53.65 1238.99"/>
    <rect x="635.76" y="477.11" width="4" height="185.41"/>
    <rect x="672.94" y="477.58" width="4" height="185.41"/>
    <rect x="656.32" y="576.16" width="1" height="37.19" transform="translate(45.64 1236.32) rotate(-88.55)"/>
    <rect x="1179.29" y="717.55" width="4" height="197.48"/>
    <rect x="1179.29" y="1179.03" width="4" height="195.5"/>
    <rect x="1179.29" y="948.35" width="4" height="196.66"/>
    <rect x="1179.29" y="485.11" width="4" height="198.04"/>
    <rect x="687.06" y="696.41" width="4" height="185.88"/>
    <rect x="716.7" y="698.76" width="4" height="186.35"/>
    <rect x="967.85" y="810.11" width="1" height="42.91" transform="translate(79.3 1747.42) rotate(-86.5)"/>
    <rect x="703.62" y="799.18" width="1" height="30.21" transform="translate(-162.54 1452.84) rotate(-85.53)"/>
    <rect x="945.41" y="707.7" width="4" height="191.53"/>
    <rect x="987.29" y="709.58" width="4" height="193.41"/>
    <rect x="867.29" y="926.05" width="4" height="189.65"/>
    <rect x="914.82" y="929.82" width="4" height="190.59"/>
    <rect x="892.2" y="1022.55" width="1" height="47.48" transform="translate(-229.04 1842.11) rotate(-84.88)"/>
    <rect x="679.65" y="1130.64" width="4" height="183.88"/>
    <rect x="622.47" y="1124.64" width="4" height="182.82"/>
    <rect x="1595.38" y="620.17" width="1" height="76.24"/>
    <rect x="1386.59" y="406.18" width="4" height="414.8" transform="translate(731.2 1981.98) rotate(-88.18)"/>
    <polygon points="2689.18 662.42 2685.18 662.42 2685.18 593.52 1595.93 622.17 1595.83 618.17 2689.18 589.41 2689.18 662.42"/>
    <polygon points="2689.18 876.64 2685.18 876.64 2685.18 810.23 1595.04 862.63 1594.84 858.64 1810.84 848.26 2398.13 820.02 2689.18 806.03 2689.18 876.64"/>
    <polygon points="1594.83 862.63 1181.18 839.6 1180.69 839.57 1180.95 835.58 1181.42 835.61 1595.05 858.64 1594.83 862.63"/>
    <rect x="1594.44" y="860.64" width="1" height="75.77"/>
    <rect x="1387.06" y="874.73" width="4" height="416.05" transform="translate(193.83 2376.31) rotate(-85.2)"/>
    <rect x="1595.85" y="1100.17" width="1" height="76.24"/>
    <polygon points="1596.49 1102.17 1596.21 1098.17 2689.18 1019.8 2689.18 1092.6 2685.18 1092.6 2685.18 1024.1 1596.49 1102.17"/>
    <rect x="1596.79" y="1338.29" width="1" height="79.06"/>
    <rect x="1387.53" y="1107.23" width="4" height="417.88" transform="translate(-66.34 2558.57) rotate(-83.92)"/>
    <polygon points="1597.48 1340.28 1597.11 1336.3 2689.18 1233.47 2689.18 1305.99 2685.18 1306.06 2685.18 1237.86 1597.48 1340.28"/>
    <rect x="1808.94" y="1194.95" width="4" height="123.37"/>
    <rect x="1808.94" y="960.03" width="4" height="124.75"/>
    <rect x="1808.94" y="725" width="4" height="125.26"/>
    <rect x="1808.94" y="488.41" width="4" height="126.1"/>
    <rect x="2396.23" y="1147" width="4" height="116.06"/>
    <rect x="2396.23" y="925.81" width="4" height="116.86"/>
    <rect x="2396.23" y="704.75" width="4" height="117.27"/>
    <rect x="2396.23" y="479.94" width="4" height="119.13"/>
    <rect x="3109.18" y="1096.88" width="4" height="111.06"/>
    <rect x="3109.18" y="887.03" width="4" height="113.92"/>
    <rect x="3109.18" y="471.47" width="4" height="112.54"/>
    <rect x="3109.18" y="680.16" width="4" height="112.09"/>
    <rect x="3581.65" y="1058.97" width="4" height="103.79"/>
    <rect x="3581.65" y="860.56" width="4" height="106.12"/>
    <rect x="3581.65" y="663.86" width="4" height="104.86"/>
    <rect x="3581.65" y="465.35" width="4" height="107.55"/>
    <rect x="2811.85" y="1146.86" width="4" height="253.77" transform="translate(1256.32 3941) rotate(-84.07)"/>
    <rect x="2939.56" y="1218.25" width="1" height="68.6"/>
    <polygon points="2940.14 1220.24 2939.97 1216.25 3066.21 1210.79 3816.36 1137.69 3816.36 1200.31 3812.36 1200.31 3812.36 1142.1 3066.49 1214.78 3066.44 1214.79 2940.14 1220.24"/>
    <rect x="2813.65" y="940.81" width="4" height="256.38" transform="translate(1595.76 3822.63) rotate(-86.9)"/>
    <rect x="2943.15" y="1008.17" width="1" height="67.76"/>
    <polygon points="3816.36 1010.64 3812.36 1010.64 3812.36 952.08 3070.14 1005.93 2943.71 1010.17 2943.58 1006.17 3069.93 1001.94 3816.36 947.78 3816.36 1010.64"/>
    <rect x="2812.94" y="729.86" width="4" height="256.86" transform="translate(1803.23 3621.8) rotate(-86.85)"/>
    <rect x="2942.67" y="798.05" width="1" height="67.29"/>
    <polygon points="3816.36 817.58 3812.36 817.58 3812.36 759.33 3070.33 796.29 2943.23 800.05 2943.12 796.05 3070.17 792.29 3816.36 755.13 3816.36 817.58"/>
    <polygon points="2945.56 655.03 2686.23 650.79 2686.24 649.79 2944.56 654.01 2944.56 587.23 2945.56 587.23 2945.56 655.03"/>
    <polygon points="3816.36 626.76 3812.36 626.76 3812.36 569.51 3074.05 586.88 2945.09 589.23 2945.02 585.23 3073.96 582.88 3816.36 565.42 3816.36 626.76"/>
    <rect x="2783.14" y="1049.01" width="4" height="311.04" transform="translate(1339.71 3872.61) rotate(-84.94)"/>
    <rect x="2628.23" y="1342.85" width="4" height="146.5"/>
    <rect x="2628.23" y="1128.06" width="4" height="112.97"/>
    <rect x="2628.23" y="912.3" width="4" height="113.73"/>
    <rect x="2628.23" y="696.75" width="4" height="114.12"/>
    <rect x="2628.23" y="478.53" width="4" height="114.44"/>
    <rect x="2592.47" y="1346.59" width="4" height="146.52"/>
    <rect x="2592.47" y="1130.98" width="4" height="113.42"/>
    <rect x="2592.47" y="914.38" width="4" height="114.22"/>
    <rect x="2592.47" y="697.98" width="4" height="114.61"/>
    <rect x="2592.47" y="478.53" width="4" height="115.38"/>
    <rect x="2785.88" y="426.96" width="4" height="314.41" transform="translate(2149.58 3360.16) rotate(-88.89)"/>
    <rect x="2784.7" y="844.87" width="4" height="314.13" transform="translate(1674.93 3746.67) rotate(-87.72)"/>
    <rect x="2893.65" y="898.51" width="4" height="107.75"/>
    <rect x="2893.65" y="1318.6" width="4" height="123.22"/>
    <rect x="2893.65" y="1108.85" width="4" height="105.47"/>
    <rect x="2893.65" y="687.59" width="4" height="108.32"/>
    <rect x="2893.65" y="474.29" width="4" height="111.98"/>
    <rect x="2926.08" y="654.22" width=".3" height=".67"/>
    <rect x="2924.23" y="897.21" width="4" height="110.27"/>
    <rect x="2924.23" y="1107.55" width="4" height="109.48"/>
    <rect x="2924.23" y="1316.86" width="4" height="124.96"/>
    <rect x="2893.65" y="1606.28" width="4" height="237.55"/>
    <rect x="2924.23" y="1611.6" width="4" height="232.23"/>
    <rect x="2924.23" y="686.54" width="4" height="110.75"/>
    <rect x="2924.23" y="474.29" width="4" height="112.57"/>
    <rect x="2784.94" y="634.6" width="4" height="312.79" transform="translate(1870.96 3539.39) rotate(-87.41)"/>
    <rect x="3748.82" y="1236.94" width="4" height="131.05"/>
    <rect x="3748.82" y="1045.55" width="4" height="100.54"/>
    <rect x="3748.82" y="851.19" width="4" height="103.36"/>
    <rect x="3748.82" y="658.1" width="4" height="102.29"/>
    <polygon points="3752.82 568.96 3748.82 568.96 3748.82 464.02 3752.82 463.94 3752.82 568.96"/>
    <rect x="3722.35" y="1239.66" width="4" height="131.61"/>
    <rect x="3722.35" y="1047.68" width="4" height="100.99"/>
    <rect x="3722.35" y="852.67" width="4" height="103.8"/>
    <rect x="3722.35" y="659.01" width="4" height="102.7"/>
    <rect x="3722.35" y="464.64" width="4" height="104.95"/>
    <rect x="1535.25" y="1451.68" width="4" height="133.68"/>
    <rect x="1535.25" y="1212.86" width="4" height="119.04"/>
    <rect x="1535.25" y="973.4" width="4" height="121.81"/>
    <rect x="1535.25" y="733.12" width="4" height="124.31"/>
    <rect x="1535.25" y="491.56" width="4" height="126.75"/>
    <rect x="1575.54" y="1452.95" width="4" height="138.5"/>
    <rect x="1575.54" y="1213.03" width="4" height="123.16"/>
    <rect x="1575.54" y="974" width="4" height="124.59"/>
    <rect x="1575.54" y="733.72" width="4" height="125.95"/>
    <rect x="1575.54" y="497.65" width="4" height="121.94"/>
    <rect x="317.26" y="1412.88" width="1" height="136.49"/>
    <rect x="216.5" y="1297.28" width="1" height="203.43" transform="translate(-1198.52 1423.03) rotate(-82.16)"/>
    <rect x="112.23" y="1274.29" width="8" height="110.82"/>
    <rect x="145.59" y="1278.88" width="8" height="111" transform="translate(-4.25 .48) rotate(-.18)"/>
    <rect x="555.64" y="1342.55" width="4.01" height=".3" transform="translate(-111.67 52.03) rotate(-4.86)"/>
    <rect x="148.73" y="1357.61" width="375.66" height="8" transform="translate(-114.8 33.63) rotate(-4.89)"/>
    <rect x="523.2" y="1325.64" width="1" height="40.59"/>
    <rect x="555.15" y="1329.35" width="1" height="41.12"/>
    <path d="M1037.48,1840.28L8.26,1651.56v-281.87l112.09,3.01-.7-7.71-119.64-2.4v295.44l1038.73,189.66c.72-2.49-2.36-4.96-1.25-7.4Z"/>
    <path d="M1041.08,1663.28c.23-2.61.71-5.26,1.37-7.88l-801.15-124.96v-124.79l-236.77-43.04-1.04,7.93,229.81,42.13v124.62l807.79,125.99Z"/>
    <path d="M439.91,1485.86v-65.06l-43.07,4.04-79-12.46h-.06s-80.53,7.76-80.53,7.76l.1,1,80.41-7.76,78.57,12.39v133.87c.34.02.67.05,1,.08v-133.92l41.59-3.91v64.83l251.72,36.3.14-.99-250.87-36.17Z"/>
    <rect x="438.91" y="1481.67" width="1" height="84.89"/>
    <rect x="293.91" y="1254.51" width="1" height="292.86" transform="translate(-1133.89 1497.19) rotate(-81.99)"/>
    <rect x="686.12" y="1345.93" width="8" height="259.65"/>
    <rect x="719.65" y="1350.34" width="8" height="260.33"/>
    <polygon points="361.57 1410.67 361.49 1409.67 649.59 1384.65 424.64 1354.19 424.77 1353.2 658.64 1384.87 361.57 1410.67"/>
    <rect x="653.62" y="1384.76" width="1" height="132"/>
    <rect x="559.62" y="1330.29" width="1" height="42.12"/>
    <rect x="999.68" y="1538.53" width="1" height="75.29" transform="translate(-705.73 2334.18) rotate(-81.56)"/>
    <polygon points="927.58 1565.9 801.5 1547.19 801.5 1360.06 802.5 1360.06 802.5 1546.33 927.72 1564.91 927.58 1565.9"/>
    <rect x="923.65" y="1375.58" width="8" height="266.89"/>
    <rect x="958.94" y="1379.99" width="8" height="268.58"/>
    <rect x="762.09" y="1494.91" width="1" height="79.7" transform="translate(-867.93 2062.44) rotate(-81.51)"/>
    <polygon points="1679.29 1768.88 1675.29 1768.88 1675.29 1605.91 1041.17 1518 1041.17 1670.52 1037.17 1670.52 1037.17 1513.4 1039.45 1513.72 1679.29 1602.43 1679.29 1768.88"/>
    <polygon points="2779.53 1658.29 2775.53 1658.29 2775.53 1474.66 1677.53 1606.16 1677.05 1602.18 2779.53 1470.15 2779.53 1658.29"/>
    <rect x="2701.88" y="1389.71" width="4" height="148.29" transform="translate(938 3980.9) rotate(-83.38)"/>
    <rect x="2563.06" y="1418.13" width="4" height="59.22" transform="translate(831.12 3828.7) rotate(-83.38)"/>
    <rect x="2533.65" y="1352.88" width="4" height="148.71"/>
    <rect x="1167.17" y="1405.58" width="8" height="128.47"/>
    <rect x="1204.59" y="1410.52" width="8" height="128.82"/>
    <rect x="1840.82" y="1424.99" width="4" height="159.18"/>
    <rect x="2369.53" y="1369.93" width="4" height="150.35"/>
    <rect x="2562.94" y="1375.29" width="4" height="58.93" transform="translate(891.88 3803.33) rotate(-83.81)"/>
    <polygon points="3030.82 1625.49 3028.58 1625.21 2777.05 1594.16 2777.54 1590.18 3026.82 1620.97 3026.82 1456.09 2629.79 1413.92 2630.21 1409.95 3030.82 1452.49 3030.82 1625.49"/>
    <polygon points="3886.59 1519.23 3882.59 1519.23 3882.59 1354.19 3029.06 1456.27 3028.58 1452.3 3886.59 1349.68 3886.59 1519.23"/>
    <polygon points="3989.85 1483.68 3884.21 1457.21 3884.49 1449.25 3990.13 1475.72 3989.85 1483.68"/>
    <rect x="3603.76" y="1251.35" width="4" height="134.12"/>
    <rect x="3663.05" y="1271.82" width="4" height="119.11" transform="translate(1997.62 4856.26) rotate(-84.65)"/>
    <rect x="3815.7" y="1278.49" width="4" height="134.36" transform="translate(2121.85 5021.24) rotate(-84.65)"/>
    <path d="M118.7,273.58v-115.6c.24-.24,1.77-1.7,4-1.49,1.66.16,2.73,1.16,3.06,1.49v115.11"/>
    <path d="M336.47,271.82v-119.83c.24-.25,1.77-1.77,4-1.54,1.66.17,2.73,1.2,3.06,1.54v119.31"/>
    <path d="M563.76,268.99v-124.5c.24-.26,1.77-1.84,4-1.6,1.66.17,2.73,1.24,3.06,1.6v123.97"/>
    <path d="M3379.53,274.99v-105.38c.24-.22,1.77-1.55,4-1.36,1.66.15,2.73,1.05,3.06,1.36v104.93"/>
    <path d="M3187.53,273.93v-105.93c.24-.22,1.77-1.56,4-1.36,1.66.15,2.73,1.06,3.06,1.36v105.48"/>
    <path d="M644.73,268.29h-1v-96.51l.18-.15c.44-.36,2.06-1.54,4.36-1.35,1.66.13,2.81.91,3.34,1.36l.18.15v96.09h-1v-95.62c-.5-.37-1.38-.88-2.6-.98-1.69-.14-2.93.6-3.46.99v96.03Z"/>
    <path d="M388.73,270.64h-1v-103l.17-.15c.44-.39,2.05-1.65,4.37-1.45,1.67.14,2.82.97,3.35,1.45l.17.15v102.56h-1v-102.1c-.49-.4-1.38-.95-2.6-1.06-1.69-.14-2.93.65-3.46,1.06v102.54Z"/>
    <g>
      <path d="M26.94,150.88v11.29c396.47-10.35,792.94-20.71,1189.41-31.06,16.81-.69,34.24-1.07,52.24-1.06,14.26,0,28.14.25,41.65.71,720,14.71,1440,29.41,2160,44.12v-10.94l-2160-44.82c-12.58-.74-25.65-1.23-39.18-1.41-19.52-.26-38.14.15-55.76,1.06-396.12,10.71-792.24,21.41-1188.35,32.12Z"/>
      <path d="M3470.38,175.03h-.15s-2160-44.12-2160-44.12c-13.83-.46-27.84-.7-41.64-.71h-.57c-17.14,0-34.52.36-51.66,1.06L26.79,162.32v-11.59h.15s1188.35-32.12,1188.35-32.12c18.5-.95,37.26-1.31,55.77-1.06,13.01.17,26.19.65,39.18,1.41l2160.14,44.83v11.24ZM1268.02,129.9c.19,0,.38,0,.57,0,13.81,0,27.82.24,41.65.71l2159.85,44.11v-10.64l-2159.85-44.82c-12.99-.76-26.17-1.24-39.17-1.41-18.5-.25-37.26.11-55.75,1.06L27.09,151.02v10.99l1189.26-31.05c17.15-.7,34.53-1.06,51.67-1.06Z"/>
    </g>
    <rect x="365.38" y="145.56" width="1" height="44.71" transform="translate(191.76 530.89) rotate(-89.03)"/>
    <rect x="607.02" y="135.3" width="1" height="73.42" transform="translate(425.19 776.52) rotate(-89.02)"/>
    <rect x="661.21" y="162.52" width="1" height="20.83" transform="translate(477.68 831.64) rotate(-89.04)"/>
    <rect x="479.02" y="85.6" width="1" height="168.49" transform="translate(301.6 646.43) rotate(-89.03)"/>
    <polygon points="118.94 163.88 26.94 162.32 26.94 162.02 118.94 163.58 118.94 163.88"/>
    <polygon points="336.46 167.92 125.65 164.34 125.65 163.34 125.66 163.34 336.48 166.92 336.46 167.92"/>
    <polygon points="672.26 267.7 671.26 267.7 671.26 162.2 687.12 162.2 687.12 163.2 672.26 163.2 672.26 267.7"/>
    <polygon points="687.62 267.52 686.62 267.52 686.62 148.98 1274.03 134.83 1274.03 262.41 1273.03 262.41 1273.03 135.86 687.62 149.95 687.62 267.52"/>
    <polygon points="2268.97 265.23 2268.67 265.23 2268.67 154.55 1273.53 135.5 1273.53 135.2 2268.97 154.26 2268.97 265.23"/>
    <rect x="2795.62" y="-362.75" width="1" height="1054.79" transform="translate(2577.24 2957.04) rotate(-88.89)"/>
    <rect x="3116.79" y="171.7" width="1" height="99.88"/>
    <rect x="3194.57" y="178.22" width="184.98" height="1" transform="translate(-3.08 70.65) rotate(-1.23)"/>
    <polygon points="3116.95 182.79 3116.93 181.79 3117.28 181.78 3187.52 180.31 3187.54 181.31 3116.95 182.79"/>
    <polygon points="3386.59 176.78 3386.59 176.48 3470.23 174.73 3470.23 175.03 3386.59 176.78"/>
    <rect x="570.81" y="212.9" width="73.42" height="1" transform="translate(-3.66 10.71) rotate(-1.01)"/>
    <polygon points="661.68 268.06 660.68 268.06 660.68 212.98 651.3 213.14 651.28 212.14 661.68 211.96 661.68 268.06"/>
    <polygon points="530.03 269.47 529.03 269.47 529.03 214.27 563.75 213.66 563.77 214.66 530.03 215.25 530.03 269.47"/>
    <rect x="570.82" y="219.83" width="73.42" height="1" transform="translate(-2.96 8.33) rotate(-.78)"/>
    <polygon points="656.2 267.88 655.2 267.88 655.2 220.2 651.3 220.26 651.28 219.26 656.2 219.19 656.2 267.88"/>
    <polygon points="535.32 269.11 534.32 269.11 534.32 220.79 563.75 220.41 563.77 221.41 535.32 221.78 535.32 269.11"/>
    <rect x="539.09" y="221.23" width="1" height="48.59"/>
    <rect x="661.17" y="211.96" width="10.41" height="1"/>
    <polygon points="666.62 268.23 665.62 268.23 665.62 221.14 671.94 221.14 671.94 222.14 666.62 222.14 666.62 268.23"/>
    <polygon points="3118.59 156.88 3114.59 156.88 3114.59 64.94 2822.47 56.93 2822.47 120.09 2818.47 120.09 2818.47 56.94 1980.18 81.23 1980.06 77.23 1980.41 77.22 2818.47 52.93 2818.47 52.82 2820.47 52.88 2822.47 52.82 2822.47 52.93 3118.59 61.05 3118.59 156.88"/>
    <rect x="2820.32" y="150.45" width=".3" height=".08"/>
    <polygon points="1982.47 98.29 1978.47 98.29 1978.47 28.58 1605.17 17.06 1605.17 89.46 1601.17 89.46 1601.17 12.93 1982.47 24.7 1982.47 98.29"/>
    <polygon points="669.59 133.23 669.41 49.78 798.87 44.68 1603.1 13 1603.25 16.99 673.41 53.62 673.59 133.22 669.59 133.23"/>
    <polygon points="1275.53 117.7 1271.53 117.7 1271.53 83.23 671.29 101.52 671.17 97.52 1275.53 79.11 1275.53 117.7"/>
    <polygon points="2271.35 138.88 2267.35 138.88 2267.35 108.36 1601.29 91.52 1601.29 124.94 1597.29 124.94 1597.29 91.41 1273.48 83.17 1273.58 79.17 1599.34 87.46 2271.35 104.46 2271.35 138.88"/>
    <polygon points="2567.12 145.41 2563.12 145.41 2563.12 115.69 2269.22 122.7 2269.13 118.7 2567.12 111.59 2567.12 145.41"/>
    <rect x="2839.03" y="-155.39" width="4" height="552" transform="translate(2648.7 2957.69) rotate(-88.55)"/>
    <rect x="798.56" y="36.87" width=".3" height="9.81" transform="translate(-1.09 38.85) rotate(-2.78)"/>
    <polygon points="905.79 42.52 904.79 42.52 904.79 34.1 798.48 37.38 798.45 36.38 905.79 33.07 905.79 42.52"/>
    <rect x="964.44" y="-24.21" width="1" height="119.35" transform="translate(899.06 998.81) rotate(-88.19)"/>
    <polygon points="1120.85 34.05 1119.85 34.05 1119.85 22.98 1221.09 20.13 1221.09 29.82 1220.09 29.82 1220.09 21.15 1120.85 23.95 1120.85 34.05"/>
    <rect x="1282.38" y="-39.57" width="1" height="124.66" transform="translate(1216.55 1304.13) rotate(-88.05)"/>
    <polygon points="1857.09 22.41 1856.09 22.41 1856.09 5.24 1734.62 1.04 1734.62 18.88 1733.62 18.88 1733.62 1.05 1607.56 6.65 1607.56 15.7 1606.56 15.7 1606.56 5.69 1607.04 5.67 1733.62 .04 1733.62 0 1734.11 .02 1734.62 0 1734.62 .04 1857.09 4.28 1857.09 22.41"/>
    <polygon points="2091.44 75.7 2090.44 75.7 2090.44 67.04 1980.48 69.85 1980.46 68.85 2091.44 66.01 2091.44 75.7"/>
    <polygon points="2181.44 72.88 2180.44 72.88 2180.44 68.43 2090.93 67.02 2090.95 66.02 2181.44 67.44 2181.44 72.88"/>
    <polygon points="2306.73 70.05 2305.73 70.05 2305.73 58.98 2306.22 58.96 2409.44 56.13 2409.44 66.17 2408.44 66.17 2408.44 57.15 2306.73 59.95 2306.73 70.05"/>
    <polygon points="2517.44 64.05 2516.44 64.05 2516.44 59.95 2408.93 57.14 2408.95 56.14 2517.44 58.98 2517.44 64.05"/>
    <g id="textura_madeira_2" class="cls-20">
      <g id="_1" data-name="1">
        <g class="cls-19">
          <g>
            <g>
              <rect x="475.84" y="428.51" width=".3" height="308"/>
              <rect x="461.72" y="428.51" width=".3" height="308"/>
              <rect x="448.31" y="428.51" width=".3" height="308"/>
              <rect x="434.9" y="428.51" width=".3" height="308"/>
              <rect x="421.49" y="421.29" width=".3" height="308"/>
              <rect x="407.37" y="421.29" width=".3" height="308"/>
              <rect x="393.96" y="421.29" width=".3" height="308"/>
              <rect x="380.55" y="421.29" width=".3" height="308"/>
              <rect x="367.14" y="414.07" width=".3" height="308"/>
              <rect x="353.02" y="414.07" width=".3" height="308"/>
              <rect x="339.61" y="414.07" width=".3" height="308"/>
              <rect x="326.19" y="414.07" width=".3" height="308"/>
              <rect x="312.78" y="439.43" width=".3" height="310.52"/>
              <rect x="298.67" y="439.43" width=".3" height="310.52"/>
              <rect x="285.25" y="439.32" width=".3" height="313.11"/>
            </g>
            <g>
              <rect x="1192.31" y="365.19" width=".3" height="308"/>
              <rect x="1178.9" y="390.55" width=".3" height="310.52"/>
              <rect x="1164.78" y="390.55" width=".3" height="310.52"/>
              <rect x="1151.37" y="390.45" width=".3" height="313.11"/>
              <rect x="1137.96" y="408.13" width=".3" height="315.98"/>
              <rect x="1124.9" y="400.19" width=".3" height="315.98"/>
              <rect x="1110.78" y="400.19" width=".3" height="315.98"/>
              <rect x="1097.37" y="413.07" width=".3" height="316.94"/>
              <rect x="1083.96" y="413.07" width=".3" height="316.94"/>
              <rect x="1070.55" y="405.64" width=".3" height="316.94"/>
              <rect x="1056.43" y="405.64" width=".3" height="316.94"/>
              <rect x="1043.02" y="405.64" width=".3" height="316.94"/>
              <rect x="1029.61" y="405.64" width=".3" height="316.94"/>
              <rect x="1016.19" y="398.2" width=".3" height="316.94"/>
              <rect x="1002.08" y="398.2" width=".3" height="316.94"/>
              <rect x="988.67" y="398.2" width=".3" height="316.94"/>
              <rect x="975.25" y="398.2" width=".3" height="316.94"/>
              <rect x="961.84" y="404.17" width=".3" height="304.51"/>
              <rect x="947.72" y="404.17" width=".3" height="304.51"/>
              <rect x="934.31" y="404.17" width=".3" height="304.51"/>
              <rect x="920.9" y="404.17" width=".3" height="304.51"/>
              <rect x="908.9" y="402.64" width=".3" height="304.51"/>
              <rect x="894.78" y="402.64" width=".3" height="304.51"/>
              <rect x="881.37" y="402.64" width=".3" height="327.44"/>
              <rect x="867.96" y="402.64" width=".3" height="327.44"/>
              <rect x="854.55" y="394.96" width=".3" height="327.44"/>
              <rect x="840.43" y="394.96" width=".3" height="327.44"/>
              <rect x="827.02" y="394.96" width=".3" height="327.44"/>
              <rect x="813.61" y="405.89" width=".3" height="326.39"/>
              <rect x="800.19" y="398.23" width=".3" height="326.39"/>
              <rect x="786.08" y="407.22" width=".3" height="306.7"/>
              <rect x="772.67" y="407.22" width=".3" height="306.7"/>
              <rect x="759.25" y="407.22" width=".3" height="306.7"/>
              <rect x="745.84" y="400.82" width=".3" height="332.55"/>
              <rect x="731.72" y="400.82" width=".3" height="332.55"/>
              <rect x="718.31" y="400.82" width=".3" height="332.55"/>
              <rect x="704.9" y="400.82" width=".3" height="332.55"/>
              <rect x="691.84" y="392.47" width=".3" height="332.55"/>
              <rect x="677.72" y="392.47" width=".3" height="332.55"/>
              <rect x="664.31" y="392.47" width=".3" height="332.55"/>
              <rect x="650.9" y="392.47" width=".3" height="332.55"/>
              <rect x="637.49" y="384.67" width=".3" height="332.55"/>
              <rect x="623.37" y="384.67" width=".3" height="332.55"/>
              <rect x="609.96" y="415.2" width=".3" height="331.47"/>
              <rect x="596.55" y="415.2" width=".3" height="331.47"/>
              <rect x="583.14" y="407.43" width=".3" height="331.47"/>
              <rect x="569.02" y="407.43" width=".3" height="331.47"/>
              <rect x="555.61" y="407.43" width=".3" height="331.47"/>
              <rect x="542.19" y="407.43" width=".3" height="331.47"/>
              <rect x="528.78" y="399.66" width=".3" height="331.47"/>
              <rect x="514.67" y="399.66" width=".3" height="331.47"/>
              <rect x="501.25" y="399.66" width=".3" height="331.47"/>
              <rect x="487.84" y="399.66" width=".3" height="331.47"/>
            </g>
          </g>
        </g>
      </g>
      <g id="_2" data-name="2">
        <g class="cls-11">
          <g>
            <g>
              <rect x="475.84" y="660.04" width=".3" height="308"/>
              <rect x="461.72" y="660.04" width=".3" height="308"/>
              <rect x="448.31" y="660.04" width=".3" height="308"/>
              <rect x="434.9" y="660.04" width=".3" height="308"/>
              <rect x="421.49" y="652.82" width=".3" height="308"/>
              <rect x="407.37" y="652.82" width=".3" height="308"/>
              <rect x="393.96" y="652.82" width=".3" height="308"/>
              <rect x="380.55" y="652.82" width=".3" height="308"/>
              <rect x="367.14" y="645.6" width=".3" height="308"/>
              <rect x="353.02" y="645.6" width=".3" height="308"/>
              <rect x="339.61" y="645.6" width=".3" height="308"/>
              <rect x="326.19" y="645.6" width=".3" height="308"/>
              <rect x="312.78" y="670.96" width=".3" height="310.52"/>
              <rect x="298.67" y="670.96" width=".3" height="310.52"/>
              <rect x="285.25" y="670.85" width=".3" height="313.11"/>
            </g>
            <g>
              <rect x="1192.31" y="596.72" width=".3" height="308"/>
              <rect x="1178.9" y="622.08" width=".3" height="310.52"/>
              <rect x="1164.78" y="622.08" width=".3" height="310.52"/>
              <rect x="1151.37" y="621.97" width=".3" height="313.11"/>
              <rect x="1137.96" y="639.66" width=".3" height="315.98"/>
              <rect x="1124.9" y="631.72" width=".3" height="315.98"/>
              <rect x="1110.78" y="631.72" width=".3" height="315.98"/>
              <rect x="1097.37" y="644.6" width=".3" height="316.94"/>
              <rect x="1083.96" y="644.6" width=".3" height="316.94"/>
              <rect x="1070.55" y="637.17" width=".3" height="316.94"/>
              <rect x="1056.43" y="637.17" width=".3" height="316.94"/>
              <rect x="1043.02" y="637.17" width=".3" height="316.94"/>
              <rect x="1029.61" y="637.17" width=".3" height="316.94"/>
              <rect x="1016.19" y="629.73" width=".3" height="316.94"/>
              <rect x="1002.08" y="629.73" width=".3" height="316.94"/>
              <rect x="988.67" y="629.73" width=".3" height="316.94"/>
              <rect x="975.25" y="629.73" width=".3" height="316.94"/>
              <rect x="961.84" y="635.7" width=".3" height="304.51"/>
              <rect x="947.72" y="635.7" width=".3" height="304.51"/>
              <rect x="934.31" y="635.7" width=".3" height="304.51"/>
              <rect x="920.9" y="635.7" width=".3" height="304.51"/>
              <rect x="908.9" y="634.17" width=".3" height="304.51"/>
              <rect x="894.78" y="634.17" width=".3" height="304.51"/>
              <rect x="881.37" y="634.17" width=".3" height="327.44"/>
              <rect x="867.96" y="634.17" width=".3" height="327.44"/>
              <rect x="854.55" y="626.49" width=".3" height="327.44"/>
              <rect x="840.43" y="626.49" width=".3" height="327.44"/>
              <rect x="827.02" y="626.49" width=".3" height="327.44"/>
              <rect x="813.61" y="637.42" width=".3" height="326.39"/>
              <rect x="800.19" y="629.76" width=".3" height="326.39"/>
              <rect x="786.08" y="638.75" width=".3" height="306.7"/>
              <rect x="772.67" y="638.75" width=".3" height="306.7"/>
              <rect x="759.25" y="638.75" width=".3" height="306.7"/>
              <rect x="745.84" y="632.35" width=".3" height="332.55"/>
              <rect x="731.72" y="632.35" width=".3" height="332.55"/>
              <rect x="718.31" y="632.35" width=".3" height="332.55"/>
              <rect x="704.9" y="632.35" width=".3" height="332.55"/>
              <rect x="691.84" y="624" width=".3" height="332.55"/>
              <rect x="677.72" y="624" width=".3" height="332.55"/>
              <rect x="664.31" y="624" width=".3" height="332.55"/>
              <rect x="650.9" y="624" width=".3" height="332.55"/>
              <rect x="637.49" y="616.2" width=".3" height="332.55"/>
              <rect x="623.37" y="616.2" width=".3" height="332.55"/>
              <rect x="609.96" y="646.73" width=".3" height="331.47"/>
              <rect x="596.55" y="646.73" width=".3" height="331.47"/>
              <rect x="583.14" y="638.96" width=".3" height="331.47"/>
              <rect x="569.02" y="638.96" width=".3" height="331.47"/>
              <rect x="555.61" y="638.96" width=".3" height="331.47"/>
              <rect x="542.19" y="638.96" width=".3" height="331.47"/>
              <rect x="528.78" y="631.19" width=".3" height="331.47"/>
              <rect x="514.67" y="631.19" width=".3" height="331.47"/>
              <rect x="501.25" y="631.19" width=".3" height="331.47"/>
              <rect x="487.84" y="631.19" width=".3" height="331.47"/>
            </g>
          </g>
        </g>
      </g>
      <g id="_3" data-name="3">
        <g class="cls-16">
          <g>
            <g>
              <rect x="439.14" y="916.99" width=".3" height="308"/>
              <rect x="425.02" y="916.99" width=".3" height="308"/>
              <rect x="411.61" y="916.99" width=".3" height="308"/>
              <rect x="398.19" y="916.99" width=".3" height="308"/>
              <rect x="384.78" y="909.76" width=".3" height="308"/>
              <rect x="370.67" y="909.76" width=".3" height="308"/>
              <rect x="357.25" y="909.76" width=".3" height="308"/>
              <rect x="343.84" y="909.76" width=".3" height="308"/>
              <rect x="330.43" y="902.54" width=".3" height="308"/>
              <rect x="316.31" y="902.54" width=".3" height="308"/>
              <rect x="302.9" y="902.54" width=".3" height="308"/>
              <rect x="289.49" y="902.54" width=".3" height="308"/>
              <rect x="276.08" y="927.9" width=".3" height="310.52"/>
              <rect x="261.96" y="927.9" width=".3" height="310.52"/>
              <rect x="248.55" y="927.79" width=".3" height="313.11"/>
            </g>
            <g>
              <rect x="1196.55" y="853.66" width=".3" height="308"/>
              <rect x="1182.43" y="853.66" width=".3" height="308"/>
              <rect x="1169.02" y="853.66" width=".3" height="308"/>
              <rect x="1155.61" y="853.66" width=".3" height="308"/>
              <rect x="1142.19" y="879.02" width=".3" height="310.52"/>
              <rect x="1128.08" y="879.02" width=".3" height="310.52"/>
              <rect x="1114.67" y="878.92" width=".3" height="313.11"/>
              <rect x="1101.25" y="896.6" width=".3" height="315.98"/>
              <rect x="1088.19" y="888.66" width=".3" height="315.98"/>
              <rect x="1074.08" y="888.66" width=".3" height="315.98"/>
              <rect x="1060.67" y="901.54" width=".3" height="316.94"/>
              <rect x="1047.25" y="901.54" width=".3" height="316.94"/>
              <rect x="1033.84" y="894.11" width=".3" height="316.94"/>
              <rect x="1019.72" y="894.11" width=".3" height="316.94"/>
              <rect x="1006.31" y="894.11" width=".3" height="316.94"/>
              <rect x="992.9" y="894.11" width=".3" height="316.94"/>
              <rect x="979.49" y="886.67" width=".3" height="316.94"/>
              <rect x="965.37" y="886.67" width=".3" height="316.94"/>
              <rect x="951.96" y="886.67" width=".3" height="316.94"/>
              <rect x="938.55" y="886.67" width=".3" height="316.94"/>
              <rect x="925.14" y="892.64" width=".3" height="304.51"/>
              <rect x="911.02" y="892.64" width=".3" height="304.51"/>
              <rect x="897.61" y="892.64" width=".3" height="304.51"/>
              <rect x="884.19" y="892.64" width=".3" height="304.51"/>
              <rect x="872.19" y="891.11" width=".3" height="304.51"/>
              <rect x="858.08" y="891.11" width=".3" height="304.51"/>
              <rect x="844.67" y="891.11" width=".3" height="327.44"/>
              <rect x="831.25" y="891.11" width=".3" height="327.44"/>
              <rect x="817.84" y="883.44" width=".3" height="327.44"/>
              <rect x="803.72" y="883.44" width=".3" height="327.44"/>
              <rect x="790.31" y="883.44" width=".3" height="327.44"/>
              <rect x="776.9" y="894.36" width=".3" height="326.39"/>
              <rect x="763.49" y="886.71" width=".3" height="326.39"/>
              <rect x="749.37" y="895.69" width=".3" height="306.7"/>
              <rect x="735.96" y="895.69" width=".3" height="306.7"/>
              <rect x="722.55" y="895.69" width=".3" height="306.7"/>
              <rect x="709.14" y="889.29" width=".3" height="332.55"/>
              <rect x="695.02" y="889.29" width=".3" height="332.55"/>
              <rect x="681.61" y="889.29" width=".3" height="332.55"/>
              <rect x="668.19" y="889.29" width=".3" height="332.55"/>
              <rect x="655.14" y="880.94" width=".3" height="332.55"/>
              <rect x="641.02" y="880.94" width=".3" height="332.55"/>
              <rect x="627.61" y="880.94" width=".3" height="332.55"/>
              <rect x="614.19" y="880.94" width=".3" height="332.55"/>
              <rect x="600.78" y="873.14" width=".3" height="332.55"/>
              <rect x="586.67" y="873.14" width=".3" height="332.55"/>
              <rect x="573.25" y="903.67" width=".3" height="331.47"/>
              <rect x="559.84" y="903.67" width=".3" height="331.47"/>
              <rect x="546.43" y="895.9" width=".3" height="331.47"/>
              <rect x="532.31" y="895.9" width=".3" height="331.47"/>
              <rect x="518.9" y="895.9" width=".3" height="331.47"/>
              <rect x="505.49" y="895.9" width=".3" height="331.47"/>
              <rect x="492.08" y="888.13" width=".3" height="331.47"/>
              <rect x="477.96" y="888.13" width=".3" height="331.47"/>
              <rect x="464.55" y="888.13" width=".3" height="331.47"/>
              <rect x="451.14" y="888.13" width=".3" height="331.47"/>
            </g>
          </g>
        </g>
      </g>
      <g id="_4" data-name="4">
        <g class="cls-14">
          <g>
            <g>
              <rect x="433.49" y="1116.21" width=".3" height="384.34"/>
              <rect x="419.37" y="1116.21" width=".3" height="384.34"/>
              <rect x="405.96" y="1116.21" width=".3" height="384.34"/>
              <rect x="392.55" y="1116.21" width=".3" height="384.34"/>
              <rect x="379.14" y="1107.2" width=".3" height="384.34"/>
              <rect x="365.02" y="1107.2" width=".3" height="384.34"/>
              <rect x="351.61" y="1107.2" width=".3" height="384.34"/>
              <rect x="338.19" y="1107.2" width=".3" height="384.34"/>
              <rect x="324.78" y="1098.18" width=".3" height="384.34"/>
              <rect x="310.67" y="1098.18" width=".3" height="384.34"/>
              <rect x="297.25" y="1098.18" width=".3" height="384.34"/>
              <rect x="283.84" y="1098.18" width=".3" height="384.34"/>
              <rect x="270.43" y="1129.83" width=".3" height="387.49"/>
              <rect x="256.31" y="1129.83" width=".3" height="387.49"/>
              <rect x="242.9" y="1129.7" width=".3" height="390.71"/>
            </g>
            <g>
              <rect x="1190.9" y="1037.19" width=".3" height="384.34"/>
              <rect x="1176.78" y="1037.19" width=".3" height="384.34"/>
              <rect x="1163.37" y="1037.19" width=".3" height="384.34"/>
              <rect x="1149.96" y="1037.19" width=".3" height="384.34"/>
              <rect x="1136.55" y="1068.83" width=".3" height="387.49"/>
              <rect x="1122.43" y="1068.83" width=".3" height="387.49"/>
              <rect x="1109.02" y="1068.7" width=".3" height="390.71"/>
              <rect x="1095.61" y="1090.77" width=".3" height="394.3"/>
              <rect x="1082.55" y="1080.87" width=".3" height="394.3"/>
              <rect x="1068.43" y="1080.87" width=".3" height="394.3"/>
              <rect x="1055.02" y="1096.94" width=".3" height="395.5"/>
              <rect x="1041.61" y="1096.94" width=".3" height="395.5"/>
              <rect x="1028.19" y="1087.66" width=".3" height="395.5"/>
              <rect x="1014.08" y="1087.66" width=".3" height="395.5"/>
              <rect x="1000.67" y="1087.66" width=".3" height="395.5"/>
              <rect x="987.25" y="1087.66" width=".3" height="395.5"/>
              <rect x="973.84" y="1078.39" width=".3" height="395.5"/>
              <rect x="959.72" y="1078.39" width=".3" height="395.5"/>
              <rect x="946.31" y="1078.39" width=".3" height="395.5"/>
              <rect x="932.9" y="1078.39" width=".3" height="395.5"/>
              <rect x="919.49" y="1085.84" width=".3" height="379.98"/>
              <rect x="905.37" y="1085.84" width=".3" height="379.98"/>
              <rect x="891.96" y="1085.84" width=".3" height="379.98"/>
              <rect x="878.55" y="1085.84" width=".3" height="379.98"/>
              <rect x="866.55" y="1083.93" width=".3" height="379.98"/>
              <rect x="852.43" y="1083.93" width=".3" height="379.98"/>
              <rect x="839.02" y="1083.93" width=".3" height="408.6"/>
              <rect x="825.61" y="1083.93" width=".3" height="408.6"/>
              <rect x="812.19" y="1074.34" width=".3" height="408.6"/>
              <rect x="798.08" y="1074.34" width=".3" height="408.6"/>
              <rect x="784.67" y="1074.34" width=".3" height="408.6"/>
              <rect x="771.25" y="1087.98" width=".3" height="407.29"/>
              <rect x="757.84" y="1078.42" width=".3" height="407.29"/>
              <rect x="743.72" y="1089.63" width=".3" height="382.72"/>
              <rect x="730.31" y="1089.63" width=".3" height="382.72"/>
              <rect x="716.9" y="1089.63" width=".3" height="382.72"/>
              <rect x="703.49" y="1081.65" width=".3" height="414.97"/>
              <rect x="689.37" y="1081.65" width=".3" height="414.97"/>
              <rect x="675.96" y="1081.65" width=".3" height="414.97"/>
              <rect x="662.55" y="1081.65" width=".3" height="414.97"/>
              <rect x="649.49" y="1071.23" width=".3" height="414.97"/>
              <rect x="635.37" y="1071.23" width=".3" height="414.97"/>
              <rect x="621.96" y="1071.23" width=".3" height="414.97"/>
              <rect x="608.55" y="1071.23" width=".3" height="414.97"/>
              <rect x="595.14" y="1061.5" width=".3" height="414.97"/>
              <rect x="581.02" y="1061.5" width=".3" height="414.97"/>
              <rect x="567.61" y="1099.6" width=".3" height="413.63"/>
              <rect x="554.19" y="1099.6" width=".3" height="413.63"/>
              <rect x="540.78" y="1089.9" width=".3" height="413.63"/>
              <rect x="526.67" y="1089.9" width=".3" height="413.63"/>
              <rect x="513.25" y="1089.9" width=".3" height="413.63"/>
              <rect x="499.84" y="1089.9" width=".3" height="413.63"/>
              <rect x="486.43" y="1080.2" width=".3" height="413.63"/>
              <rect x="472.31" y="1080.2" width=".3" height="413.63"/>
              <rect x="458.9" y="1080.2" width=".3" height="413.63"/>
              <rect x="445.49" y="1080.2" width=".3" height="413.63"/>
            </g>
          </g>
        </g>
      </g>
      <g id="_5" data-name="5">
        <g class="cls-3">
          <g>
            <rect x="2430.43" y="309.81" width=".3" height="384.34"/>
            <rect x="2417.02" y="300.79" width=".3" height="384.34"/>
            <rect x="2402.9" y="300.79" width=".3" height="384.34"/>
            <rect x="2389.49" y="300.79" width=".3" height="384.34"/>
            <rect x="2376.08" y="300.79" width=".3" height="384.34"/>
            <rect x="2362.67" y="291.78" width=".3" height="384.35"/>
            <rect x="2348.55" y="291.78" width=".3" height="384.35"/>
            <rect x="2335.14" y="291.78" width=".3" height="384.35"/>
            <rect x="2321.72" y="291.78" width=".3" height="384.35"/>
            <rect x="2308.31" y="323.42" width=".3" height="387.49"/>
            <rect x="2294.19" y="323.42" width=".3" height="387.49"/>
            <rect x="2280.78" y="323.29" width=".3" height="390.71"/>
            <rect x="2267.37" y="345.36" width=".3" height="394.3"/>
            <rect x="2254.31" y="335.45" width=".3" height="394.3"/>
            <rect x="2240.19" y="335.45" width=".3" height="394.3"/>
            <rect x="2226.78" y="351.52" width=".3" height="395.5"/>
            <rect x="2213.37" y="351.52" width=".3" height="395.5"/>
            <rect x="2199.96" y="342.25" width=".3" height="395.5"/>
            <rect x="2185.84" y="342.25" width=".3" height="395.5"/>
            <rect x="2172.43" y="342.25" width=".3" height="395.5"/>
            <rect x="2159.02" y="342.25" width=".3" height="395.5"/>
            <rect x="2145.61" y="332.98" width=".3" height="395.5"/>
            <rect x="2131.49" y="332.98" width=".3" height="395.5"/>
            <rect x="2118.08" y="332.98" width=".3" height="395.5"/>
            <rect x="2104.67" y="332.98" width=".3" height="395.5"/>
            <rect x="2091.25" y="340.42" width=".3" height="379.98"/>
            <rect x="2077.14" y="340.42" width=".3" height="379.98"/>
            <rect x="2063.72" y="340.42" width=".3" height="379.98"/>
            <rect x="2050.31" y="340.42" width=".3" height="379.98"/>
            <rect x="2038.31" y="338.51" width=".3" height="379.98"/>
            <rect x="2024.19" y="338.51" width=".3" height="379.98"/>
            <rect x="2010.78" y="338.51" width=".3" height="408.6"/>
            <rect x="1997.37" y="338.51" width=".3" height="408.6"/>
            <rect x="1983.96" y="328.93" width=".3" height="408.6"/>
            <rect x="1969.84" y="328.93" width=".3" height="408.6"/>
            <rect x="1956.43" y="328.93" width=".3" height="408.6"/>
            <rect x="1943.02" y="342.56" width=".3" height="407.29"/>
            <rect x="1929.61" y="333.01" width=".3" height="407.29"/>
            <rect x="1915.49" y="344.22" width=".3" height="382.72"/>
            <rect x="1902.08" y="344.22" width=".3" height="382.72"/>
            <rect x="1888.67" y="344.22" width=".3" height="382.72"/>
            <rect x="1875.25" y="336.24" width=".3" height="414.97"/>
            <rect x="1861.14" y="336.24" width=".3" height="414.97"/>
            <rect x="1847.72" y="336.24" width=".3" height="414.97"/>
            <rect x="1834.31" y="336.24" width=".3" height="414.97"/>
            <rect x="1821.25" y="325.82" width=".3" height="414.97"/>
            <rect x="1807.14" y="325.82" width=".3" height="414.97"/>
            <rect x="1793.72" y="325.82" width=".3" height="414.97"/>
          </g>
        </g>
      </g>
      <g id="_6" data-name="6">
        <g class="cls-12">
          <g>
            <rect x="2432.55" y="571.89" width=".3" height="387.49"/>
            <rect x="2419.14" y="571.76" width=".3" height="390.71"/>
            <rect x="2405.72" y="593.83" width=".3" height="394.3"/>
            <rect x="2392.67" y="583.92" width=".3" height="394.3"/>
            <rect x="2378.55" y="583.92" width=".3" height="394.3"/>
            <rect x="2365.14" y="600" width=".3" height="395.5"/>
            <rect x="2351.72" y="600" width=".3" height="395.5"/>
            <rect x="2338.31" y="590.72" width=".3" height="395.5"/>
            <rect x="2324.19" y="590.72" width=".3" height="395.5"/>
            <rect x="2310.78" y="590.72" width=".3" height="395.5"/>
            <rect x="2297.37" y="590.72" width=".3" height="395.5"/>
            <rect x="2283.96" y="581.45" width=".3" height="395.5"/>
            <rect x="2269.84" y="581.45" width=".3" height="395.5"/>
            <rect x="2256.43" y="581.45" width=".3" height="395.5"/>
            <rect x="2243.02" y="581.45" width=".3" height="395.5"/>
            <rect x="2229.61" y="588.89" width=".3" height="379.98"/>
            <rect x="2215.49" y="588.89" width=".3" height="379.98"/>
            <rect x="2202.08" y="588.89" width=".3" height="379.98"/>
            <rect x="2188.67" y="588.89" width=".3" height="379.98"/>
            <rect x="2176.67" y="586.99" width=".3" height="379.98"/>
            <rect x="2162.55" y="586.99" width=".3" height="379.98"/>
            <rect x="2149.14" y="586.99" width=".3" height="408.6"/>
            <rect x="2135.72" y="586.99" width=".3" height="408.6"/>
            <rect x="2122.31" y="577.4" width=".3" height="408.6"/>
            <rect x="2108.19" y="577.4" width=".3" height="408.6"/>
            <rect x="2094.78" y="577.4" width=".3" height="408.6"/>
            <rect x="2081.37" y="591.03" width=".3" height="407.29"/>
            <rect x="2067.96" y="581.48" width=".3" height="407.29"/>
            <rect x="2053.84" y="592.69" width=".3" height="382.72"/>
            <rect x="2040.43" y="592.69" width=".3" height="382.72"/>
            <rect x="2027.02" y="592.69" width=".3" height="382.72"/>
            <rect x="2013.61" y="584.71" width=".3" height="414.97"/>
            <rect x="1999.49" y="584.71" width=".3" height="414.97"/>
            <rect x="1986.08" y="584.71" width=".3" height="414.97"/>
            <rect x="1972.67" y="584.71" width=".3" height="414.97"/>
            <rect x="1959.61" y="574.29" width=".3" height="414.97"/>
            <rect x="1945.49" y="574.29" width=".3" height="414.97"/>
            <rect x="1932.08" y="574.29" width=".3" height="414.97"/>
            <rect x="1918.67" y="574.29" width=".3" height="414.97"/>
            <rect x="1905.25" y="564.56" width=".3" height="414.97"/>
            <rect x="1891.14" y="564.56" width=".3" height="414.97"/>
            <rect x="1877.72" y="602.66" width=".3" height="413.63"/>
            <rect x="1864.31" y="602.66" width=".3" height="413.63"/>
            <rect x="1850.9" y="592.96" width=".3" height="413.63"/>
            <rect x="1836.78" y="592.96" width=".3" height="413.63"/>
            <rect x="1823.37" y="592.96" width=".3" height="413.63"/>
            <rect x="1809.96" y="592.96" width=".3" height="413.63"/>
            <rect x="1796.55" y="583.26" width=".3" height="413.63"/>
            <rect x="1782.43" y="583.26" width=".3" height="413.63"/>
          </g>
        </g>
      </g>
      <g id="_7" data-name="7">
        <g class="cls-1">
          <g>
            <rect x="2435.37" y="822.87" width=".3" height="729.37"/>
            <rect x="2421.25" y="822.87" width=".3" height="729.37"/>
            <rect x="2407.84" y="822.63" width=".3" height="735.44"/>
            <rect x="2394.43" y="864.17" width=".3" height="742.19"/>
            <rect x="2381.37" y="845.52" width=".3" height="742.19"/>
            <rect x="2367.25" y="845.52" width=".3" height="742.19"/>
            <rect x="2353.84" y="875.77" width=".3" height="744.46"/>
            <rect x="2340.43" y="875.77" width=".3" height="744.46"/>
            <rect x="2327.02" y="858.31" width=".3" height="744.46"/>
            <rect x="2312.9" y="858.31" width=".3" height="744.46"/>
            <rect x="2299.49" y="858.31" width=".3" height="744.46"/>
            <rect x="2286.08" y="858.31" width=".3" height="744.46"/>
            <rect x="2272.67" y="840.85" width=".3" height="744.46"/>
            <rect x="2258.55" y="840.85" width=".3" height="744.46"/>
            <rect x="2245.14" y="840.85" width=".3" height="744.46"/>
            <rect x="2231.72" y="840.85" width=".3" height="744.46"/>
            <rect x="2218.31" y="854.87" width=".3" height="715.24"/>
            <rect x="2204.19" y="854.87" width=".3" height="715.24"/>
            <rect x="2190.78" y="854.87" width=".3" height="715.24"/>
            <rect x="2177.37" y="854.87" width=".3" height="715.24"/>
            <rect x="2165.37" y="851.28" width=".3" height="715.24"/>
            <rect x="2151.25" y="851.28" width=".3" height="715.24"/>
            <rect x="2137.84" y="851.28" width=".3" height="769.12"/>
            <rect x="2124.43" y="851.28" width=".3" height="769.12"/>
            <rect x="2111.02" y="833.24" width=".3" height="769.12"/>
            <rect x="2096.9" y="833.24" width=".3" height="769.12"/>
            <rect x="2083.49" y="833.24" width=".3" height="769.12"/>
            <rect x="2070.08" y="858.9" width=".3" height="766.64"/>
            <rect x="2056.67" y="840.92" width=".3" height="766.65"/>
            <rect x="2042.55" y="862.02" width=".3" height="720.4"/>
            <rect x="2029.14" y="862.02" width=".3" height="720.4"/>
            <rect x="2015.72" y="862.02" width=".3" height="720.4"/>
            <rect x="2002.31" y="847" width=".3" height="781.11"/>
            <rect x="1988.19" y="847" width=".3" height="781.11"/>
            <rect x="1974.78" y="847" width=".3" height="781.11"/>
            <rect x="1961.37" y="847" width=".3" height="781.11"/>
            <rect x="1948.31" y="827.38" width=".3" height="781.11"/>
            <rect x="1934.19" y="827.38" width=".3" height="781.11"/>
            <rect x="1920.78" y="827.38" width=".3" height="781.11"/>
            <rect x="1907.37" y="827.38" width=".3" height="781.11"/>
            <rect x="1893.96" y="809.06" width=".3" height="781.11"/>
            <rect x="1879.84" y="809.06" width=".3" height="781.11"/>
            <rect x="1866.43" y="880.78" width=".3" height="778.59"/>
            <rect x="1853.02" y="880.78" width=".3" height="778.59"/>
            <rect x="1839.61" y="862.52" width=".3" height="778.59"/>
            <rect x="1825.49" y="862.52" width=".3" height="778.59"/>
            <rect x="1812.08" y="862.52" width=".3" height="778.59"/>
            <rect x="1798.67" y="862.52" width=".3" height="778.59"/>
            <rect x="1785.25" y="844.26" width=".3" height="778.59"/>
          </g>
        </g>
      </g>
      <g id="_8" data-name="8">
        <g class="cls-2">
          <g>
            <rect x="2435.37" y="822.87" width=".3" height="729.37"/>
            <rect x="2421.25" y="822.87" width=".3" height="729.37"/>
            <rect x="2407.84" y="822.63" width=".3" height="735.44"/>
            <rect x="2394.43" y="864.17" width=".3" height="742.19"/>
            <rect x="2381.37" y="845.52" width=".3" height="742.19"/>
            <rect x="2367.25" y="845.52" width=".3" height="742.19"/>
            <rect x="2353.84" y="875.77" width=".3" height="744.46"/>
            <rect x="2340.43" y="875.77" width=".3" height="744.46"/>
            <rect x="2327.02" y="858.31" width=".3" height="744.46"/>
            <rect x="2312.9" y="858.31" width=".3" height="744.46"/>
            <rect x="2299.49" y="858.31" width=".3" height="744.46"/>
            <rect x="2286.08" y="858.31" width=".3" height="744.46"/>
            <rect x="2272.67" y="840.85" width=".3" height="744.46"/>
            <rect x="2258.55" y="840.85" width=".3" height="744.46"/>
            <rect x="2245.14" y="840.85" width=".3" height="744.46"/>
            <rect x="2231.72" y="840.85" width=".3" height="744.46"/>
            <rect x="2218.31" y="854.87" width=".3" height="715.24"/>
            <rect x="2204.19" y="854.87" width=".3" height="715.24"/>
            <rect x="2190.78" y="854.87" width=".3" height="715.24"/>
            <rect x="2177.37" y="854.87" width=".3" height="715.24"/>
            <rect x="2165.37" y="851.28" width=".3" height="715.24"/>
            <rect x="2151.25" y="851.28" width=".3" height="715.24"/>
            <rect x="2137.84" y="851.28" width=".3" height="769.12"/>
            <rect x="2124.43" y="851.28" width=".3" height="769.12"/>
            <rect x="2111.02" y="833.24" width=".3" height="769.12"/>
            <rect x="2096.9" y="833.24" width=".3" height="769.12"/>
            <rect x="2083.49" y="833.24" width=".3" height="769.12"/>
            <rect x="2070.08" y="858.9" width=".3" height="766.64"/>
            <rect x="2056.67" y="840.92" width=".3" height="766.65"/>
            <rect x="2042.55" y="862.02" width=".3" height="720.4"/>
            <rect x="2029.14" y="862.02" width=".3" height="720.4"/>
            <rect x="2015.72" y="862.02" width=".3" height="720.4"/>
            <rect x="2002.31" y="847" width=".3" height="781.11"/>
            <rect x="1988.19" y="847" width=".3" height="781.11"/>
            <rect x="1974.78" y="847" width=".3" height="781.11"/>
            <rect x="1961.37" y="847" width=".3" height="781.11"/>
            <rect x="1948.31" y="827.38" width=".3" height="781.11"/>
            <rect x="1934.19" y="827.38" width=".3" height="781.11"/>
            <rect x="1920.78" y="827.38" width=".3" height="781.11"/>
            <rect x="1907.37" y="827.38" width=".3" height="781.11"/>
            <rect x="1893.96" y="809.06" width=".3" height="781.11"/>
            <rect x="1879.84" y="809.06" width=".3" height="781.11"/>
            <rect x="1866.43" y="880.78" width=".3" height="778.59"/>
            <rect x="1853.02" y="880.78" width=".3" height="778.59"/>
            <rect x="1839.61" y="862.52" width=".3" height="778.59"/>
            <rect x="1825.49" y="862.52" width=".3" height="778.59"/>
            <rect x="1812.08" y="862.52" width=".3" height="778.59"/>
            <rect x="1798.67" y="862.52" width=".3" height="778.59"/>
            <rect x="1785.25" y="844.26" width=".3" height="778.59"/>
          </g>
        </g>
      </g>
      <g id="_9" data-name="9">
        <g class="cls-13">
          <g>
            <rect x="2435.37" y="822.87" width=".3" height="729.37"/>
            <rect x="2421.25" y="822.87" width=".3" height="729.37"/>
            <rect x="2407.84" y="822.63" width=".3" height="735.44"/>
            <rect x="2394.43" y="864.17" width=".3" height="742.19"/>
            <rect x="2381.37" y="845.52" width=".3" height="742.19"/>
            <rect x="2367.25" y="845.52" width=".3" height="742.19"/>
            <rect x="2353.84" y="875.77" width=".3" height="744.46"/>
            <rect x="2340.43" y="875.77" width=".3" height="744.46"/>
            <rect x="2327.02" y="858.31" width=".3" height="744.46"/>
            <rect x="2312.9" y="858.31" width=".3" height="744.46"/>
            <rect x="2299.49" y="858.31" width=".3" height="744.46"/>
            <rect x="2286.08" y="858.31" width=".3" height="744.46"/>
            <rect x="2272.67" y="840.85" width=".3" height="744.46"/>
            <rect x="2258.55" y="840.85" width=".3" height="744.46"/>
            <rect x="2245.14" y="840.85" width=".3" height="744.46"/>
            <rect x="2231.72" y="840.85" width=".3" height="744.46"/>
            <rect x="2218.31" y="854.87" width=".3" height="715.24"/>
            <rect x="2204.19" y="854.87" width=".3" height="715.24"/>
            <rect x="2190.78" y="854.87" width=".3" height="715.24"/>
            <rect x="2177.37" y="854.87" width=".3" height="715.24"/>
            <rect x="2165.37" y="851.28" width=".3" height="715.24"/>
            <rect x="2151.25" y="851.28" width=".3" height="715.24"/>
            <rect x="2137.84" y="851.28" width=".3" height="769.12"/>
            <rect x="2124.43" y="851.28" width=".3" height="769.12"/>
            <rect x="2111.02" y="833.24" width=".3" height="769.12"/>
            <rect x="2096.9" y="833.24" width=".3" height="769.12"/>
            <rect x="2083.49" y="833.24" width=".3" height="769.12"/>
            <rect x="2070.08" y="858.9" width=".3" height="766.64"/>
            <rect x="2056.67" y="840.92" width=".3" height="766.65"/>
            <rect x="2042.55" y="862.02" width=".3" height="720.4"/>
            <rect x="2029.14" y="862.02" width=".3" height="720.4"/>
            <rect x="2015.72" y="862.02" width=".3" height="720.4"/>
            <rect x="2002.31" y="847" width=".3" height="781.11"/>
            <rect x="1988.19" y="847" width=".3" height="781.11"/>
            <rect x="1974.78" y="847" width=".3" height="781.11"/>
            <rect x="1961.37" y="847" width=".3" height="781.11"/>
            <rect x="1948.31" y="827.38" width=".3" height="781.11"/>
            <rect x="1934.19" y="827.38" width=".3" height="781.11"/>
            <rect x="1920.78" y="827.38" width=".3" height="781.11"/>
            <rect x="1907.37" y="827.38" width=".3" height="781.11"/>
            <rect x="1893.96" y="809.06" width=".3" height="781.11"/>
            <rect x="1879.84" y="809.06" width=".3" height="781.11"/>
            <rect x="1866.43" y="880.78" width=".3" height="778.59"/>
            <rect x="1853.02" y="880.78" width=".3" height="778.59"/>
            <rect x="1839.61" y="862.52" width=".3" height="778.59"/>
            <rect x="1825.49" y="862.52" width=".3" height="778.59"/>
            <rect x="1812.08" y="862.52" width=".3" height="778.59"/>
            <rect x="1798.67" y="862.52" width=".3" height="778.59"/>
            <rect x="1785.25" y="844.26" width=".3" height="778.59"/>
          </g>
        </g>
      </g>
      <g id="_10" data-name="10">
        <g class="cls-4">
          <g>
            <rect x="3620.55" y="265.05" width=".3" height="995.34"/>
            <rect x="3606.43" y="265.05" width=".3" height="995.34"/>
            <rect x="3593.02" y="265.05" width=".3" height="995.34"/>
            <rect x="3579.61" y="265.05" width=".3" height="995.34"/>
            <rect x="3566.19" y="241.71" width=".3" height="995.34"/>
            <rect x="3552.08" y="241.71" width=".3" height="995.34"/>
            <rect x="3538.67" y="241.71" width=".3" height="995.34"/>
            <rect x="3525.25" y="241.71" width=".3" height="995.34"/>
            <rect x="3511.84" y="218.37" width=".3" height="995.34"/>
            <rect x="3497.72" y="218.37" width=".3" height="995.34"/>
            <rect x="3484.31" y="218.37" width=".3" height="995.34"/>
            <rect x="3470.9" y="218.37" width=".3" height="995.34"/>
            <rect x="3457.49" y="300.31" width=".3" height="1003.48"/>
            <rect x="3443.37" y="300.31" width=".3" height="1003.48"/>
            <rect x="3429.96" y="299.98" width=".3" height="1011.83"/>
            <rect x="3416.55" y="357.13" width=".3" height="1021.11"/>
            <rect x="3403.49" y="331.47" width=".3" height="1021.12"/>
            <rect x="3389.37" y="331.47" width=".3" height="1021.12"/>
            <rect x="3375.96" y="373.09" width=".3" height="1024.23"/>
            <rect x="3362.55" y="373.09" width=".3" height="1024.23"/>
            <rect x="3349.14" y="349.07" width=".3" height="1024.23"/>
            <rect x="3335.02" y="349.07" width=".3" height="1024.23"/>
            <rect x="3321.61" y="349.07" width=".3" height="1024.23"/>
            <rect x="3308.19" y="349.07" width=".3" height="1024.23"/>
            <rect x="3294.78" y="325.05" width=".3" height="1024.23"/>
            <rect x="3280.67" y="325.05" width=".3" height="1024.23"/>
            <rect x="3267.25" y="325.05" width=".3" height="1024.23"/>
            <rect x="3253.84" y="325.05" width=".3" height="1024.23"/>
            <rect x="3240.43" y="344.34" width=".3" height="984.04"/>
            <rect x="3226.31" y="344.34" width=".3" height="984.04"/>
            <rect x="3212.9" y="344.34" width=".3" height="984.04"/>
            <rect x="3199.49" y="344.34" width=".3" height="984.04"/>
            <rect x="3187.49" y="339.4" width=".3" height="984.04"/>
            <rect x="3173.37" y="339.4" width=".3" height="984.04"/>
            <rect x="3159.96" y="339.4" width=".3" height="1058.16"/>
            <rect x="3146.55" y="339.4" width=".3" height="1058.16"/>
            <rect x="3133.14" y="314.58" width=".3" height="1058.16"/>
            <rect x="3119.02" y="314.58" width=".3" height="1058.16"/>
            <rect x="3105.61" y="314.58" width=".3" height="1058.16"/>
            <rect x="3092.19" y="349.89" width=".3" height="1054.76"/>
            <rect x="3078.78" y="325.15" width=".3" height="1054.76"/>
          </g>
        </g>
      </g>
      <g id="_11" data-name="11">
        <g class="cls-5">
          <g>
            <rect x="3620.55" y="265.05" width=".3" height="995.34"/>
            <rect x="3606.43" y="265.05" width=".3" height="995.34"/>
            <rect x="3593.02" y="265.05" width=".3" height="995.34"/>
            <rect x="3579.61" y="265.05" width=".3" height="995.34"/>
            <rect x="3566.19" y="241.71" width=".3" height="995.34"/>
            <rect x="3552.08" y="241.71" width=".3" height="995.34"/>
            <rect x="3538.67" y="241.71" width=".3" height="995.34"/>
            <rect x="3525.25" y="241.71" width=".3" height="995.34"/>
            <rect x="3511.84" y="218.37" width=".3" height="995.34"/>
            <rect x="3497.72" y="218.37" width=".3" height="995.34"/>
            <rect x="3484.31" y="218.37" width=".3" height="995.34"/>
            <rect x="3470.9" y="218.37" width=".3" height="995.34"/>
            <rect x="3457.49" y="300.31" width=".3" height="1003.48"/>
            <rect x="3443.37" y="300.31" width=".3" height="1003.48"/>
            <rect x="3429.96" y="299.98" width=".3" height="1011.83"/>
            <rect x="3416.55" y="357.13" width=".3" height="1021.11"/>
            <rect x="3403.49" y="331.47" width=".3" height="1021.12"/>
            <rect x="3389.37" y="331.47" width=".3" height="1021.12"/>
            <rect x="3375.96" y="373.09" width=".3" height="1024.23"/>
            <rect x="3362.55" y="373.09" width=".3" height="1024.23"/>
            <rect x="3349.14" y="349.07" width=".3" height="1024.23"/>
            <rect x="3335.02" y="349.07" width=".3" height="1024.23"/>
            <rect x="3321.61" y="349.07" width=".3" height="1024.23"/>
            <rect x="3308.19" y="349.07" width=".3" height="1024.23"/>
            <rect x="3294.78" y="325.05" width=".3" height="1024.23"/>
            <rect x="3280.67" y="325.05" width=".3" height="1024.23"/>
            <rect x="3267.25" y="325.05" width=".3" height="1024.23"/>
            <rect x="3253.84" y="325.05" width=".3" height="1024.23"/>
            <rect x="3240.43" y="344.34" width=".3" height="984.04"/>
            <rect x="3226.31" y="344.34" width=".3" height="984.04"/>
            <rect x="3212.9" y="344.34" width=".3" height="984.04"/>
            <rect x="3199.49" y="344.34" width=".3" height="984.04"/>
            <rect x="3187.49" y="339.4" width=".3" height="984.04"/>
            <rect x="3173.37" y="339.4" width=".3" height="984.04"/>
            <rect x="3159.96" y="339.4" width=".3" height="1058.16"/>
            <rect x="3146.55" y="339.4" width=".3" height="1058.16"/>
            <rect x="3133.14" y="314.58" width=".3" height="1058.16"/>
            <rect x="3119.02" y="314.58" width=".3" height="1058.16"/>
            <rect x="3105.61" y="314.58" width=".3" height="1058.16"/>
            <rect x="3092.19" y="349.89" width=".3" height="1054.76"/>
            <rect x="3078.78" y="325.15" width=".3" height="1054.76"/>
          </g>
        </g>
      </g>
      <g id="_12" data-name="12">
        <g class="cls-6">
          <g>
            <rect x="3620.55" y="265.05" width=".3" height="995.34"/>
            <rect x="3606.43" y="265.05" width=".3" height="995.34"/>
            <rect x="3593.02" y="265.05" width=".3" height="995.34"/>
            <rect x="3579.61" y="265.05" width=".3" height="995.34"/>
            <rect x="3566.19" y="241.71" width=".3" height="995.34"/>
            <rect x="3552.08" y="241.71" width=".3" height="995.34"/>
            <rect x="3538.67" y="241.71" width=".3" height="995.34"/>
            <rect x="3525.25" y="241.71" width=".3" height="995.34"/>
            <rect x="3511.84" y="218.37" width=".3" height="995.34"/>
            <rect x="3497.72" y="218.37" width=".3" height="995.34"/>
            <rect x="3484.31" y="218.37" width=".3" height="995.34"/>
            <rect x="3470.9" y="218.37" width=".3" height="995.34"/>
            <rect x="3457.49" y="300.31" width=".3" height="1003.48"/>
            <rect x="3443.37" y="300.31" width=".3" height="1003.48"/>
            <rect x="3429.96" y="299.98" width=".3" height="1011.83"/>
            <rect x="3416.55" y="357.13" width=".3" height="1021.11"/>
            <rect x="3403.49" y="331.47" width=".3" height="1021.12"/>
            <rect x="3389.37" y="331.47" width=".3" height="1021.12"/>
            <rect x="3375.96" y="373.09" width=".3" height="1024.23"/>
            <rect x="3362.55" y="373.09" width=".3" height="1024.23"/>
            <rect x="3349.14" y="349.07" width=".3" height="1024.23"/>
            <rect x="3335.02" y="349.07" width=".3" height="1024.23"/>
            <rect x="3321.61" y="349.07" width=".3" height="1024.23"/>
            <rect x="3308.19" y="349.07" width=".3" height="1024.23"/>
            <rect x="3294.78" y="325.05" width=".3" height="1024.23"/>
            <rect x="3280.67" y="325.05" width=".3" height="1024.23"/>
            <rect x="3267.25" y="325.05" width=".3" height="1024.23"/>
            <rect x="3253.84" y="325.05" width=".3" height="1024.23"/>
            <rect x="3240.43" y="344.34" width=".3" height="984.04"/>
            <rect x="3226.31" y="344.34" width=".3" height="984.04"/>
            <rect x="3212.9" y="344.34" width=".3" height="984.04"/>
            <rect x="3199.49" y="344.34" width=".3" height="984.04"/>
            <rect x="3187.49" y="339.4" width=".3" height="984.04"/>
            <rect x="3173.37" y="339.4" width=".3" height="984.04"/>
            <rect x="3159.96" y="339.4" width=".3" height="1058.16"/>
            <rect x="3146.55" y="339.4" width=".3" height="1058.16"/>
            <rect x="3133.14" y="314.58" width=".3" height="1058.16"/>
            <rect x="3119.02" y="314.58" width=".3" height="1058.16"/>
            <rect x="3105.61" y="314.58" width=".3" height="1058.16"/>
            <rect x="3092.19" y="349.89" width=".3" height="1054.76"/>
            <rect x="3078.78" y="325.15" width=".3" height="1054.76"/>
          </g>
        </g>
      </g>
      <g id="_13" data-name="13">
        <g class="cls-15">
          <g>
            <rect x="3620.55" y="265.05" width=".3" height="995.34"/>
            <rect x="3606.43" y="265.05" width=".3" height="995.34"/>
            <rect x="3593.02" y="265.05" width=".3" height="995.34"/>
            <rect x="3579.61" y="265.05" width=".3" height="995.34"/>
            <rect x="3566.19" y="241.71" width=".3" height="995.34"/>
            <rect x="3552.08" y="241.71" width=".3" height="995.34"/>
            <rect x="3538.67" y="241.71" width=".3" height="995.34"/>
            <rect x="3525.25" y="241.71" width=".3" height="995.34"/>
            <rect x="3511.84" y="218.37" width=".3" height="995.34"/>
            <rect x="3497.72" y="218.37" width=".3" height="995.34"/>
            <rect x="3484.31" y="218.37" width=".3" height="995.34"/>
            <rect x="3470.9" y="218.37" width=".3" height="995.34"/>
            <rect x="3457.49" y="300.31" width=".3" height="1003.48"/>
            <rect x="3443.37" y="300.31" width=".3" height="1003.48"/>
            <rect x="3429.96" y="299.98" width=".3" height="1011.83"/>
            <rect x="3416.55" y="357.13" width=".3" height="1021.11"/>
            <rect x="3403.49" y="331.47" width=".3" height="1021.12"/>
            <rect x="3389.37" y="331.47" width=".3" height="1021.12"/>
            <rect x="3375.96" y="373.09" width=".3" height="1024.23"/>
            <rect x="3362.55" y="373.09" width=".3" height="1024.23"/>
            <rect x="3349.14" y="349.07" width=".3" height="1024.23"/>
            <rect x="3335.02" y="349.07" width=".3" height="1024.23"/>
            <rect x="3321.61" y="349.07" width=".3" height="1024.23"/>
            <rect x="3308.19" y="349.07" width=".3" height="1024.23"/>
            <rect x="3294.78" y="325.05" width=".3" height="1024.23"/>
            <rect x="3280.67" y="325.05" width=".3" height="1024.23"/>
            <rect x="3267.25" y="325.05" width=".3" height="1024.23"/>
            <rect x="3253.84" y="325.05" width=".3" height="1024.23"/>
            <rect x="3240.43" y="344.34" width=".3" height="984.04"/>
            <rect x="3226.31" y="344.34" width=".3" height="984.04"/>
            <rect x="3212.9" y="344.34" width=".3" height="984.04"/>
            <rect x="3199.49" y="344.34" width=".3" height="984.04"/>
            <rect x="3187.49" y="339.4" width=".3" height="984.04"/>
            <rect x="3173.37" y="339.4" width=".3" height="984.04"/>
            <rect x="3159.96" y="339.4" width=".3" height="1058.16"/>
            <rect x="3146.55" y="339.4" width=".3" height="1058.16"/>
            <rect x="3133.14" y="314.58" width=".3" height="1058.16"/>
            <rect x="3119.02" y="314.58" width=".3" height="1058.16"/>
            <rect x="3105.61" y="314.58" width=".3" height="1058.16"/>
            <rect x="3092.19" y="349.89" width=".3" height="1054.76"/>
            <rect x="3078.78" y="325.15" width=".3" height="1054.76"/>
          </g>
        </g>
      </g>
    </g>
    <polyline class="cls-9" points="1039.17 1670.42 1039.17 1854.59 1677.05 1986.45 1677.05 1734.19"/>
    <polygon class="cls-9" points="2147.37 1749.63 2147.37 1930.57 2360.7 1965.46 2360.7 1775.65 2147.37 1749.63"/>
    <polyline class="cls-9" points="1677.05 1725.35 2083.49 1675.94 2083.79 1937.04 2147.37 1930.57"/>
    <polyline class="cls-9" points="2254.04 1761.87 2254.04 1649.6 2660.47 1600.19 2757.47 1590.17 2757.47 1837.19 2777.55 1834.45 2777.55 1658.29"/>
    <polyline class="cls-8" points="2083.49 1937.04 1677.05 1986.45 1975.08 2035.48 3990.13 1757.65 3990.13 1476.33"/>
    <line class="cls-9" x1="2360.7" y1="1899.89" x2="2757.47" y2="1837.19"/>
    <line class="cls-9" x1="1744.63" y1="1717.13" x2="1744.63" y2="1978.23"/>
    <line class="cls-9" x1="1819.83" y1="1707.81" x2="1819.83" y2="1970.14"/>
    <line class="cls-9" x1="1895.02" y1="1698.85" x2="1895.02" y2="1959.64"/>
    <line class="cls-9" x1="1960.36" y1="1689.71" x2="1960.36" y2="1950.81"/>
    <line class="cls-9" x1="2025.7" y1="1681.53" x2="2025.7" y2="1941.82"/>
    <line class="cls-9" x1="2347.77" y1="1641.57" x2="2347.77" y2="1774.08"/>
    <line class="cls-9" x1="2436.71" y1="1625.49" x2="2436.71" y2="1889.8"/>
    <line class="cls-9" x1="2525.65" y1="1616.14" x2="2525.65" y2="1871.89"/>
    <polygon class="cls-9" points="3393 1594.58 3393 1775.52 3559.29 1810.41 3559.29 1612.91 3393 1594.58"/>
    <polyline class="cls-9" points="3393 1775.52 3343.44 1781.98 3343.21 1530.64 3028.58 1568.56"/>
    <polyline class="cls-9" points="3476.15 1602.59 3476.15 1512.67 3868.56 1466.46 3868.56 1720.96 3884.21 1720.96 3884.21 1503.24"/>
    <line class="cls-9" x1="3280.67" y1="1538.62" x2="3280.67" y2="1789.7"/>
    <line class="cls-9" x1="3687.86" y1="1490.63" x2="3687.86" y2="1746.17"/>
    <line class="cls-9" x1="3764.09" y1="1480.4" x2="3764.09" y2="1735.25"/>
    <line class="cls-9" x1="3829" y1="1471.12" x2="3829" y2="1724.33"/>
    <line class="cls-9" x1="3603.76" y1="1497.43" x2="3603.76" y2="1755.99"/>
    <line class="cls-9" x1="3528.17" y1="1506.55" x2="3528.17" y2="1610.6"/>
    <line class="cls-9" x1="2610.39" y1="1606.28" x2="2610.39" y2="1858.46"/>
    <line class="cls-9" x1="2687.09" y1="1596.87" x2="2687.09" y2="1848.31"/>
    <line class="cls-9" x1="2926.23" y1="1841.76" x2="3343.44" y2="1781.98"/>
    <line class="cls-9" x1="3559.29" y1="1764.59" x2="3869.47" y2="1720.15"/>
    <line class="cls-9" x1="3209.7" y1="1547.96" x2="3209.7" y2="1801.15"/>
    <line class="cls-9" x1="3140.51" y1="1556.01" x2="3140.51" y2="1810.41"/>
    <line class="cls-9" x1="3065.45" y1="1564.22" x2="3065.45" y2="1818.29"/>
    <line class="cls-9" x1="2991.92" y1="1616.66" x2="2991.92" y2="1832.35"/>
    <polyline class="cls-9" points="2927.17 1841.76 2897.65 1843.82 2867.99 1834.45"/>
    <line class="cls-7" x1="2894.81" y1="1842.93" x2="3029.75" y2="1889.33"/>
  </g>
  <g id="Grafismos">
    <g class="cls-18">
      <g>
        <g>
          <rect x="1675.85" y="1357" width=".3" height="729.37"/>
          <rect x="1661.73" y="1357" width=".3" height="729.37"/>
          <rect x="1648.32" y="1356.75" width=".3" height="735.44"/>
          <rect x="1634.91" y="1398.29" width=".3" height="742.19"/>
          <rect x="1621.85" y="1379.64" width=".3" height="742.19"/>
          <rect x="1607.73" y="1379.64" width=".3" height="742.19"/>
          <rect x="1594.32" y="1409.89" width=".3" height="744.46"/>
          <rect x="1580.91" y="1409.89" width=".3" height="744.46"/>
          <rect x="1567.49" y="1392.44" width=".3" height="744.46"/>
          <rect x="1553.38" y="1392.44" width=".3" height="744.46"/>
          <rect x="1539.96" y="1392.44" width=".3" height="744.46"/>
          <rect x="1526.55" y="1392.44" width=".3" height="744.46"/>
          <rect x="1513.14" y="1374.98" width=".3" height="744.46"/>
          <rect x="1499.02" y="1374.98" width=".3" height="744.46"/>
          <rect x="1485.61" y="1374.98" width=".3" height="744.46"/>
          <rect x="1472.2" y="1374.98" width=".3" height="744.46"/>
          <rect x="1458.79" y="1389" width=".3" height="715.24"/>
          <rect x="1444.67" y="1389" width=".3" height="715.24"/>
          <rect x="1431.26" y="1389" width=".3" height="715.24"/>
          <rect x="1417.85" y="1389" width=".3" height="715.24"/>
          <rect x="1405.85" y="1385.41" width=".3" height="715.24"/>
          <rect x="1391.73" y="1385.41" width=".3" height="715.24"/>
          <rect x="1378.32" y="1385.41" width=".3" height="769.12"/>
          <rect x="1364.91" y="1385.41" width=".3" height="769.12"/>
          <rect x="1351.49" y="1367.37" width=".3" height="769.12"/>
          <rect x="1337.38" y="1367.37" width=".3" height="769.12"/>
          <rect x="1323.96" y="1367.37" width=".3" height="769.12"/>
          <rect x="1310.55" y="1393.03" width=".3" height="766.64"/>
          <rect x="1297.14" y="1375.05" width=".3" height="766.65"/>
          <rect x="1283.02" y="1396.15" width=".3" height="720.4"/>
          <rect x="1269.61" y="1396.15" width=".3" height="720.4"/>
          <rect x="1256.2" y="1396.15" width=".3" height="720.4"/>
          <rect x="1242.79" y="1381.13" width=".3" height="781.11"/>
          <rect x="1228.67" y="1381.13" width=".3" height="781.11"/>
          <rect x="1215.26" y="1381.13" width=".3" height="781.11"/>
          <rect x="1201.85" y="1381.13" width=".3" height="781.11"/>
          <rect x="1188.79" y="1361.5" width=".3" height="781.11"/>
          <rect x="1174.67" y="1361.5" width=".3" height="781.11"/>
          <rect x="1161.26" y="1361.5" width=".3" height="781.11"/>
          <rect x="1147.85" y="1361.5" width=".3" height="781.11"/>
          <rect x="1134.43" y="1343.19" width=".3" height="781.11"/>
          <rect x="1120.32" y="1343.19" width=".3" height="781.11"/>
          <rect x="1106.91" y="1414.91" width=".3" height="778.59"/>
          <rect x="1093.49" y="1414.91" width=".3" height="778.59"/>
          <rect x="1080.08" y="1396.65" width=".3" height="778.59"/>
          <rect x="1065.96" y="1396.65" width=".3" height="778.59"/>
          <rect x="1052.55" y="1396.65" width=".3" height="778.59"/>
          <rect x="1039.14" y="1396.65" width=".3" height="778.59"/>
          <rect x="1025.73" y="1378.39" width=".3" height="778.59"/>
        </g>
        <g>
          <rect x="2311.06" y="1357" width=".3" height="729.37"/>
          <rect x="2296.94" y="1357" width=".3" height="729.37"/>
          <rect x="2283.53" y="1356.75" width=".3" height="735.44"/>
          <rect x="2270.12" y="1398.29" width=".3" height="742.19"/>
          <rect x="2257.06" y="1379.64" width=".3" height="742.19"/>
          <rect x="2242.94" y="1379.64" width=".3" height="742.19"/>
          <rect x="2229.53" y="1409.89" width=".3" height="744.46"/>
          <rect x="2216.12" y="1409.89" width=".3" height="744.46"/>
          <rect x="2202.7" y="1392.44" width=".3" height="744.46"/>
          <rect x="2188.59" y="1392.44" width=".3" height="744.46"/>
          <rect x="2175.17" y="1392.44" width=".3" height="744.46"/>
          <rect x="2161.76" y="1392.44" width=".3" height="744.46"/>
          <rect x="2148.35" y="1374.98" width=".3" height="744.46"/>
          <rect x="2134.23" y="1374.98" width=".3" height="744.46"/>
          <rect x="2120.82" y="1374.98" width=".3" height="744.46"/>
          <rect x="2107.41" y="1374.98" width=".3" height="744.46"/>
          <rect x="2094" y="1389" width=".3" height="715.24"/>
          <rect x="2079.88" y="1389" width=".3" height="715.24"/>
          <rect x="2066.47" y="1389" width=".3" height="715.24"/>
          <rect x="2053.06" y="1389" width=".3" height="715.24"/>
          <rect x="2041.06" y="1385.41" width=".3" height="715.24"/>
          <rect x="2026.94" y="1385.41" width=".3" height="715.24"/>
          <rect x="2013.53" y="1385.41" width=".3" height="769.12"/>
          <rect x="2000.12" y="1385.41" width=".3" height="769.12"/>
          <rect x="1986.7" y="1367.37" width=".3" height="769.12"/>
          <rect x="1972.59" y="1367.37" width=".3" height="769.12"/>
          <rect x="1959.17" y="1367.37" width=".3" height="769.12"/>
          <rect x="1945.76" y="1393.03" width=".3" height="766.64"/>
          <rect x="1932.35" y="1375.05" width=".3" height="766.65"/>
          <rect x="1918.23" y="1396.15" width=".3" height="720.4"/>
          <rect x="1904.82" y="1396.15" width=".3" height="720.4"/>
          <rect x="1891.41" y="1396.15" width=".3" height="720.4"/>
          <rect x="1878" y="1381.13" width=".3" height="781.11"/>
          <rect x="1863.88" y="1381.13" width=".3" height="781.11"/>
          <rect x="1850.47" y="1381.13" width=".3" height="781.11"/>
          <rect x="1837.06" y="1381.13" width=".3" height="781.11"/>
          <rect x="1824" y="1361.5" width=".3" height="781.11"/>
          <rect x="1809.88" y="1361.5" width=".3" height="781.11"/>
          <rect x="1796.47" y="1361.5" width=".3" height="781.11"/>
          <rect x="1783.06" y="1361.5" width=".3" height="781.11"/>
          <rect x="1769.65" y="1343.19" width=".3" height="781.11"/>
          <rect x="1755.53" y="1343.19" width=".3" height="781.11"/>
          <rect x="1742.12" y="1414.91" width=".3" height="778.59"/>
          <rect x="1728.7" y="1414.91" width=".3" height="778.59"/>
          <rect x="1715.29" y="1396.65" width=".3" height="778.59"/>
          <rect x="1701.17" y="1396.65" width=".3" height="778.59"/>
          <rect x="1687.76" y="1396.65" width=".3" height="778.59"/>
          <rect x="1674.35" y="1396.65" width=".3" height="778.59"/>
          <rect x="1660.94" y="1378.39" width=".3" height="778.59"/>
        </g>
        <g>
          <rect x="2976.04" y="1315.05" width=".3" height="729.37"/>
          <rect x="2961.92" y="1315.05" width=".3" height="729.37"/>
          <rect x="2948.51" y="1314.81" width=".3" height="735.44"/>
          <rect x="2935.1" y="1356.35" width=".3" height="742.19"/>
          <rect x="2922.04" y="1337.7" width=".3" height="742.19"/>
          <rect x="2907.92" y="1337.7" width=".3" height="742.19"/>
          <rect x="2894.51" y="1367.95" width=".3" height="744.46"/>
          <rect x="2881.1" y="1367.95" width=".3" height="744.46"/>
          <rect x="2867.69" y="1350.49" width=".3" height="744.46"/>
          <rect x="2853.57" y="1350.49" width=".3" height="744.46"/>
          <rect x="2840.16" y="1350.49" width=".3" height="744.46"/>
          <rect x="2826.75" y="1350.49" width=".3" height="744.46"/>
          <rect x="2813.33" y="1333.03" width=".3" height="744.46"/>
          <rect x="2799.22" y="1333.03" width=".3" height="744.46"/>
          <rect x="2785.8" y="1333.03" width=".3" height="744.46"/>
          <rect x="2772.39" y="1333.03" width=".3" height="744.46"/>
          <rect x="2758.98" y="1347.05" width=".3" height="715.24"/>
          <rect x="2744.86" y="1347.05" width=".3" height="715.24"/>
          <rect x="2731.45" y="1347.05" width=".3" height="715.24"/>
          <rect x="2718.04" y="1347.05" width=".3" height="715.24"/>
          <rect x="2706.04" y="1343.46" width=".3" height="715.24"/>
          <rect x="2691.92" y="1343.46" width=".3" height="715.24"/>
          <rect x="2678.51" y="1343.46" width=".3" height="769.12"/>
          <rect x="2665.1" y="1343.46" width=".3" height="769.12"/>
          <rect x="2651.69" y="1325.42" width=".3" height="769.12"/>
          <rect x="2637.57" y="1325.42" width=".3" height="769.12"/>
          <rect x="2624.16" y="1325.42" width=".3" height="769.12"/>
          <rect x="2610.75" y="1351.08" width=".3" height="766.64"/>
          <rect x="2597.33" y="1333.1" width=".3" height="766.65"/>
          <rect x="2583.22" y="1354.2" width=".3" height="720.4"/>
          <rect x="2569.8" y="1354.2" width=".3" height="720.4"/>
          <rect x="2556.39" y="1354.2" width=".3" height="720.4"/>
          <rect x="2542.98" y="1339.18" width=".3" height="781.11"/>
          <rect x="2528.86" y="1339.18" width=".3" height="781.11"/>
          <rect x="2515.45" y="1339.18" width=".3" height="781.11"/>
          <rect x="2502.04" y="1339.18" width=".3" height="781.11"/>
          <rect x="2488.98" y="1319.56" width=".3" height="781.11"/>
          <rect x="2474.86" y="1319.56" width=".3" height="781.11"/>
          <rect x="2461.45" y="1319.56" width=".3" height="781.11"/>
          <rect x="2448.04" y="1319.56" width=".3" height="781.11"/>
          <rect x="2434.63" y="1301.24" width=".3" height="781.11"/>
          <rect x="2420.51" y="1301.24" width=".3" height="781.11"/>
          <rect x="2407.1" y="1372.96" width=".3" height="778.59"/>
          <rect x="2393.69" y="1372.96" width=".3" height="778.59"/>
          <rect x="2380.28" y="1354.7" width=".3" height="778.59"/>
          <rect x="2366.16" y="1354.7" width=".3" height="778.59"/>
          <rect x="2352.75" y="1354.7" width=".3" height="778.59"/>
          <rect x="2339.33" y="1354.7" width=".3" height="778.59"/>
          <rect x="2325.92" y="1336.45" width=".3" height="778.59"/>
        </g>
        <g>
          <rect x="3642.88" y="1315.05" width=".3" height="729.37"/>
          <rect x="3628.76" y="1315.05" width=".3" height="729.37"/>
          <rect x="3615.35" y="1314.81" width=".3" height="735.44"/>
          <rect x="3601.94" y="1356.35" width=".3" height="742.19"/>
          <rect x="3588.88" y="1337.7" width=".3" height="742.19"/>
          <rect x="3574.76" y="1337.7" width=".3" height="742.19"/>
          <rect x="3561.35" y="1367.95" width=".3" height="744.46"/>
          <rect x="3547.94" y="1367.95" width=".3" height="744.46"/>
          <rect x="3534.52" y="1350.49" width=".3" height="744.46"/>
          <rect x="3520.41" y="1350.49" width=".3" height="744.46"/>
          <rect x="3506.99" y="1350.49" width=".3" height="744.46"/>
          <rect x="3493.58" y="1350.49" width=".3" height="744.46"/>
          <rect x="3480.17" y="1333.03" width=".3" height="744.46"/>
          <rect x="3466.05" y="1333.03" width=".3" height="744.46"/>
          <rect x="3452.64" y="1333.03" width=".3" height="744.46"/>
          <rect x="3439.23" y="1333.03" width=".3" height="744.46"/>
          <rect x="3425.82" y="1347.05" width=".3" height="715.24"/>
          <rect x="3411.7" y="1347.05" width=".3" height="715.24"/>
          <rect x="3398.29" y="1347.05" width=".3" height="715.24"/>
          <rect x="3384.88" y="1347.05" width=".3" height="715.24"/>
          <rect x="3372.88" y="1343.46" width=".3" height="715.24"/>
          <rect x="3358.76" y="1343.46" width=".3" height="715.24"/>
          <rect x="3345.35" y="1343.46" width=".3" height="769.12"/>
          <rect x="3331.94" y="1343.46" width=".3" height="769.12"/>
          <rect x="3318.52" y="1325.42" width=".3" height="769.12"/>
          <rect x="3304.41" y="1325.42" width=".3" height="769.12"/>
          <rect x="3290.99" y="1325.42" width=".3" height="769.12"/>
          <rect x="3277.58" y="1351.08" width=".3" height="766.64"/>
          <rect x="3264.17" y="1333.1" width=".3" height="766.65"/>
          <rect x="3250.05" y="1354.2" width=".3" height="720.4"/>
          <rect x="3236.64" y="1354.2" width=".3" height="720.4"/>
          <rect x="3223.23" y="1354.2" width=".3" height="720.4"/>
          <rect x="3209.82" y="1339.18" width=".3" height="781.11"/>
          <rect x="3195.7" y="1339.18" width=".3" height="781.11"/>
          <rect x="3182.29" y="1339.18" width=".3" height="781.11"/>
          <rect x="3168.88" y="1339.18" width=".3" height="781.11"/>
          <rect x="3155.82" y="1319.56" width=".3" height="781.11"/>
          <rect x="3141.7" y="1319.56" width=".3" height="781.11"/>
          <rect x="3128.29" y="1319.56" width=".3" height="781.11"/>
          <rect x="3114.88" y="1319.56" width=".3" height="781.11"/>
          <rect x="3101.47" y="1301.24" width=".3" height="781.11"/>
          <rect x="3087.35" y="1301.24" width=".3" height="781.11"/>
          <rect x="3073.94" y="1372.96" width=".3" height="778.59"/>
          <rect x="3060.52" y="1372.96" width=".3" height="778.59"/>
          <rect x="3047.11" y="1354.7" width=".3" height="778.59"/>
          <rect x="3032.99" y="1354.7" width=".3" height="778.59"/>
          <rect x="3019.58" y="1354.7" width=".3" height="778.59"/>
          <rect x="3006.17" y="1354.7" width=".3" height="778.59"/>
          <rect x="2992.76" y="1336.45" width=".3" height="778.59"/>
        </g>
        <g>
          <rect x="3985.05" y="1325.42" width=".3" height="769.12"/>
          <rect x="3970.93" y="1325.42" width=".3" height="769.12"/>
          <rect x="3957.52" y="1325.42" width=".3" height="769.12"/>
          <rect x="3944.11" y="1351.08" width=".3" height="766.64"/>
          <rect x="3930.69" y="1333.1" width=".3" height="766.65"/>
          <rect x="3916.58" y="1354.2" width=".3" height="720.4"/>
          <rect x="3903.17" y="1354.2" width=".3" height="720.4"/>
          <rect x="3889.75" y="1354.2" width=".3" height="720.4"/>
          <rect x="3876.34" y="1339.18" width=".3" height="781.11"/>
          <rect x="3862.22" y="1339.18" width=".3" height="781.11"/>
          <rect x="3848.81" y="1339.18" width=".3" height="781.11"/>
          <rect x="3835.4" y="1339.18" width=".3" height="781.11"/>
          <rect x="3822.34" y="1319.56" width=".3" height="781.11"/>
          <rect x="3808.22" y="1319.56" width=".3" height="781.11"/>
          <rect x="3794.81" y="1319.56" width=".3" height="781.11"/>
          <rect x="3781.4" y="1319.56" width=".3" height="781.11"/>
          <rect x="3767.99" y="1301.24" width=".3" height="781.11"/>
          <rect x="3753.87" y="1301.24" width=".3" height="781.11"/>
          <rect x="3740.46" y="1372.96" width=".3" height="778.59"/>
          <rect x="3727.05" y="1372.96" width=".3" height="778.59"/>
          <rect x="3713.64" y="1354.7" width=".3" height="778.59"/>
          <rect x="3699.52" y="1354.7" width=".3" height="778.59"/>
          <rect x="3686.11" y="1354.7" width=".3" height="778.59"/>
          <rect x="3672.69" y="1354.7" width=".3" height="778.59"/>
          <rect x="3659.28" y="1336.45" width=".3" height="778.59"/>
        </g>
      </g>
    </g>
  </g>
</svg>